<?xml version="1.0" standalone="no"?><!-- Generator: Gravit.io --><svg xmlns="http://www.w3.org/2000/svg" xmlns:xlink="http://www.w3.org/1999/xlink" style="isolation:isolate" viewBox="606.565 -352.434 555 99" width="555" height="99"><g id="Ground"><linearGradient id="_lgradient_57" x1="50%" y1="0%" x2="50.000000000000014%" y2="100%"><stop offset="0%" stop-opacity="1" style="stop-color:rgb(210,210,210)"/><stop offset="100%" stop-opacity="1" style="stop-color:rgb(132,132,132)"/></linearGradient><rect x="256" y="256" width="2048" height="512" transform="matrix(1,0,0,1,0,0)" fill="url(#_lgradient_57)"/><linearGradient id="_lgradient_58" x1="49.999999999999986%" y1="0%" x2="49.99999999999999%" y2="100%"><stop offset="0%" stop-opacity="1" style="stop-color:rgb(210,210,210)"/><stop offset="100%" stop-opacity="1" style="stop-color:rgb(132,132,132)"/></linearGradient><mask id="_mask_DXOrkFuFP0CFe5sJffcZEjAYv68BWrQo"><rect x="256" y="256" width="512" height="512" transform="matrix(1,0,0,1,0,0)" fill="white" stroke="none"/></mask><rect x="256" y="256" width="512" height="512" transform="matrix(1,0,0,1,0,0)" fill="url(#_lgradient_58)" mask="url(#_mask_DXOrkFuFP0CFe5sJffcZEjAYv68BWrQo)" vector-effect="non-scaling-stroke" stroke-width="6" stroke="rgb(0,0,0)" stroke-opacity="0.4" stroke-linejoin="miter" stroke-linecap="square" stroke-miterlimit="3"/><linearGradient id="_lgradient_59" x1="50%" y1="0%" x2="50.000000000000014%" y2="100%"><stop offset="0%" stop-opacity="1" style="stop-color:rgb(242,242,242)"/><stop offset="100%" stop-opacity="1" style="stop-color:rgb(155,155,155)"/></linearGradient><rect x="283.268" y="283.268" width="457.464" height="457.464" transform="matrix(1,0,0,1,0,0)" fill="url(#_lgradient_59)"/><linearGradient id="_lgradient_60" x1="50%" y1="0%" x2="50.000000000000014%" y2="100%"><stop offset="0%" stop-opacity="1" style="stop-color:rgb(210,210,210)"/><stop offset="100%" stop-opacity="1" style="stop-color:rgb(132,132,132)"/></linearGradient><mask id="_mask_FACB7rXTn3w3K3pfS5Fiz2bFx9qpts76"><rect x="768" y="256" width="512" height="512" transform="matrix(1,0,0,1,0,0)" fill="white" stroke="none"/></mask><rect x="768" y="256" width="512" height="512" transform="matrix(1,0,0,1,0,0)" fill="url(#_lgradient_60)" mask="url(#_mask_FACB7rXTn3w3K3pfS5Fiz2bFx9qpts76)" vector-effect="non-scaling-stroke" stroke-width="6" stroke="rgb(0,0,0)" stroke-opacity="0.4" stroke-linejoin="miter" stroke-linecap="square" stroke-miterlimit="3"/><linearGradient id="_lgradient_61" x1="50%" y1="0%" x2="50.000000000000014%" y2="100%"><stop offset="0%" stop-opacity="1" style="stop-color:rgb(242,242,242)"/><stop offset="100%" stop-opacity="1" style="stop-color:rgb(155,155,155)"/></linearGradient><rect x="795.268" y="283.268" width="457.464" height="457.464" transform="matrix(1,0,0,1,0,0)" fill="url(#_lgradient_61)"/><linearGradient id="_lgradient_62" x1="50%" y1="0%" x2="50.000000000000014%" y2="100%"><stop offset="0%" stop-opacity="1" style="stop-color:rgb(210,210,210)"/><stop offset="100%" stop-opacity="1" style="stop-color:rgb(132,132,132)"/></linearGradient><mask id="_mask_mMkqvUxHxrltq8ZpcIZI62WntXeS916v"><rect x="1280" y="256" width="512" height="512" transform="matrix(1,0,0,1,0,0)" fill="white" stroke="none"/></mask><rect x="1280" y="256" width="512" height="512" transform="matrix(1,0,0,1,0,0)" fill="url(#_lgradient_62)" mask="url(#_mask_mMkqvUxHxrltq8ZpcIZI62WntXeS916v)" vector-effect="non-scaling-stroke" stroke-width="6" stroke="rgb(0,0,0)" stroke-opacity="0.4" stroke-linejoin="miter" stroke-linecap="square" stroke-miterlimit="3"/><linearGradient id="_lgradient_63" x1="50%" y1="0%" x2="50.000000000000014%" y2="100%"><stop offset="0%" stop-opacity="1" style="stop-color:rgb(242,242,242)"/><stop offset="100%" stop-opacity="1" style="stop-color:rgb(155,155,155)"/></linearGradient><rect x="1307.268" y="283.268" width="457.464" height="457.464" transform="matrix(1,0,0,1,0,0)" fill="url(#_lgradient_63)"/><linearGradient id="_lgradient_64" x1="50%" y1="0%" x2="50.000000000000014%" y2="100%"><stop offset="0%" stop-opacity="1" style="stop-color:rgb(210,210,210)"/><stop offset="100%" stop-opacity="1" style="stop-color:rgb(132,132,132)"/></linearGradient><mask id="_mask_Jmr7C47m5rBca8brZbVIdxrcBcxiwwMB"><rect x="1792" y="256" width="512" height="512" transform="matrix(1,0,0,1,0,0)" fill="white" stroke="none"/></mask><rect x="1792" y="256" width="512" height="512" transform="matrix(1,0,0,1,0,0)" fill="url(#_lgradient_64)" mask="url(#_mask_Jmr7C47m5rBca8brZbVIdxrcBcxiwwMB)" vector-effect="non-scaling-stroke" stroke-width="6" stroke="rgb(0,0,0)" stroke-opacity="0.4" stroke-linejoin="miter" stroke-linecap="square" stroke-miterlimit="3"/><linearGradient id="_lgradient_65" x1="50%" y1="0%" x2="50.000000000000014%" y2="100%"><stop offset="0%" stop-opacity="1" style="stop-color:rgb(242,242,242)"/><stop offset="100%" stop-opacity="1" style="stop-color:rgb(155,155,155)"/></linearGradient><rect x="1819.268" y="283.268" width="457.464" height="457.464" transform="matrix(1,0,0,1,0,0)" fill="url(#_lgradient_65)"/></g><g id="Ground Line"><linearGradient id="_lgradient_66" x1="0%" y1="50%" x2="100%" y2="50%"><stop offset="0%" stop-opacity="0" style="stop-color:rgb(255,255,255)"/><stop offset="100%" stop-opacity="1" style="stop-color:rgb(255,255,255)"/></linearGradient><rect x="818.779" y="74.769" width="461.221" height="7.471" transform="matrix(1,0,0,1,0,0)" fill="url(#_lgradient_66)"/><linearGradient id="_lgradient_67" x1="0%" y1="50%" x2="100%" y2="50%"><stop offset="0%" stop-opacity="1" style="stop-color:rgb(255,255,255)"/><stop offset="100%" stop-opacity="0" style="stop-color:rgb(255,255,255)"/></linearGradient><rect x="1280" y="74.769" width="461.221" height="7.471" transform="matrix(1,0,0,1,0,0)" fill="url(#_lgradient_67)"/></g><g id="Player"><path d=" M 468.593 -116.592 L 596.593 -116.592 L 596.593 11.408 L 468.593 11.408 L 468.593 -116.592 Z  M 495.424 -89.76 L 569.761 -89.76 L 569.761 -15.423 L 495.424 -15.423 L 495.424 -89.76 Z " fill-rule="evenodd" fill="rgb(255,29,229)" vector-effect="non-scaling-stroke" stroke-width="5" stroke="rgb(0,0,0)" stroke-linejoin="round" stroke-linecap="square" stroke-miterlimit="3"/><rect x="513.093" y="-72.092" width="38.999" height="38.999" transform="matrix(1,0,0,1,0,0)" fill="rgb(63,255,29)" vector-effect="non-scaling-stroke" stroke-width="5" stroke="rgb(0,0,0)" stroke-linejoin="round" stroke-linecap="square" stroke-miterlimit="3"/></g><linearGradient id="_lgradient_68" x1="49.999999999999986%" y1="0%" x2="49.99999999999999%" y2="100%"><stop offset="12.173913043478262%" stop-opacity="1" style="stop-color:rgb(0,0,0)"/><stop offset="100%" stop-opacity="0" style="stop-color:rgb(0,0,0)"/></linearGradient><rect x="626.5" y="-116.592" width="128" height="128" transform="matrix(1,0,0,1,0,0)" fill="url(#_lgradient_68)" vector-effect="non-scaling-stroke" stroke-width="5" stroke="rgb(255,255,255)" stroke-linejoin="miter" stroke-linecap="square" stroke-miterlimit="3"/><linearGradient id="_lgradient_69" x1="49.999999999999986%" y1="0%" x2="49.99999999999999%" y2="100%"><stop offset="12.173913043478262%" stop-opacity="1" style="stop-color:rgb(0,0,0)"/><stop offset="100%" stop-opacity="0" style="stop-color:rgb(0,0,0)"/></linearGradient><polygon points="848.407,-116.592,912.407,11.408,784.407,11.408" fill="url(#_lgradient_69)" vector-effect="non-scaling-stroke" stroke-width="5" stroke="rgb(255,255,255)" stroke-linejoin="miter" stroke-linecap="square" stroke-miterlimit="3"/><g transform="matrix(1,0,0,1,618.479,-364.47)"><text transform="matrix(1,0,0,1,15,96.552)" style="font-family:&quot;Comic Sans MS&quot;;font-weight:400;font-size:74px;font-style:normal;fill:#fff200;stroke:#DBB300;stroke-width:5;">Level Complete!</text></g></svg>