<?xml version="1.0" standalone="no"?><!-- Generator: Gravit.io --><svg xmlns="http://www.w3.org/2000/svg" xmlns:xlink="http://www.w3.org/1999/xlink" style="isolation:isolate" viewBox="818.779 74.769 922 7" width="922" height="7"><g id="Ground"><linearGradient id="_lgradient_9" x1="50%" y1="0%" x2="50.000000000000014%" y2="100%"><stop offset="0%" stop-opacity="1" style="stop-color:rgb(210,210,210)"/><stop offset="100%" stop-opacity="1" style="stop-color:rgb(132,132,132)"/></linearGradient><rect x="256" y="256" width="2048" height="512" transform="matrix(1,0,0,1,0,0)" fill="url(#_lgradient_9)"/><linearGradient id="_lgradient_10" x1="49.999999999999986%" y1="0%" x2="49.99999999999999%" y2="100%"><stop offset="0%" stop-opacity="1" style="stop-color:rgb(210,210,210)"/><stop offset="100%" stop-opacity="1" style="stop-color:rgb(132,132,132)"/></linearGradient><mask id="_mask_1S3OiK3at79R9FYzQUZ0l2ijLQGDJOh6"><rect x="256" y="256" width="512" height="512" transform="matrix(1,0,0,1,0,0)" fill="white" stroke="none"/></mask><rect x="256" y="256" width="512" height="512" transform="matrix(1,0,0,1,0,0)" fill="url(#_lgradient_10)" mask="url(#_mask_1S3OiK3at79R9FYzQUZ0l2ijLQGDJOh6)" vector-effect="non-scaling-stroke" stroke-width="6" stroke="rgb(0,0,0)" stroke-opacity="0.4" stroke-linejoin="miter" stroke-linecap="square" stroke-miterlimit="3"/><linearGradient id="_lgradient_11" x1="50%" y1="0%" x2="50.000000000000014%" y2="100%"><stop offset="0%" stop-opacity="1" style="stop-color:rgb(242,242,242)"/><stop offset="100%" stop-opacity="1" style="stop-color:rgb(155,155,155)"/></linearGradient><rect x="283.268" y="283.268" width="457.464" height="457.464" transform="matrix(1,0,0,1,0,0)" fill="url(#_lgradient_11)"/><linearGradient id="_lgradient_12" x1="50%" y1="0%" x2="50.000000000000014%" y2="100%"><stop offset="0%" stop-opacity="1" style="stop-color:rgb(210,210,210)"/><stop offset="100%" stop-opacity="1" style="stop-color:rgb(132,132,132)"/></linearGradient><mask id="_mask_VVnkGdOSeba2z6cFgktNduy4dqmGEMPL"><rect x="768" y="256" width="512" height="512" transform="matrix(1,0,0,1,0,0)" fill="white" stroke="none"/></mask><rect x="768" y="256" width="512" height="512" transform="matrix(1,0,0,1,0,0)" fill="url(#_lgradient_12)" mask="url(#_mask_VVnkGdOSeba2z6cFgktNduy4dqmGEMPL)" vector-effect="non-scaling-stroke" stroke-width="6" stroke="rgb(0,0,0)" stroke-opacity="0.4" stroke-linejoin="miter" stroke-linecap="square" stroke-miterlimit="3"/><linearGradient id="_lgradient_13" x1="50%" y1="0%" x2="50.000000000000014%" y2="100%"><stop offset="0%" stop-opacity="1" style="stop-color:rgb(242,242,242)"/><stop offset="100%" stop-opacity="1" style="stop-color:rgb(155,155,155)"/></linearGradient><rect x="795.268" y="283.268" width="457.464" height="457.464" transform="matrix(1,0,0,1,0,0)" fill="url(#_lgradient_13)"/><linearGradient id="_lgradient_14" x1="50%" y1="0%" x2="50.000000000000014%" y2="100%"><stop offset="0%" stop-opacity="1" style="stop-color:rgb(210,210,210)"/><stop offset="100%" stop-opacity="1" style="stop-color:rgb(132,132,132)"/></linearGradient><mask id="_mask_VSX65mu0AwXylm2B12ZgCeSvTYMXttF2"><rect x="1280" y="256" width="512" height="512" transform="matrix(1,0,0,1,0,0)" fill="white" stroke="none"/></mask><rect x="1280" y="256" width="512" height="512" transform="matrix(1,0,0,1,0,0)" fill="url(#_lgradient_14)" mask="url(#_mask_VSX65mu0AwXylm2B12ZgCeSvTYMXttF2)" vector-effect="non-scaling-stroke" stroke-width="6" stroke="rgb(0,0,0)" stroke-opacity="0.4" stroke-linejoin="miter" stroke-linecap="square" stroke-miterlimit="3"/><linearGradient id="_lgradient_15" x1="50%" y1="0%" x2="50.000000000000014%" y2="100%"><stop offset="0%" stop-opacity="1" style="stop-color:rgb(242,242,242)"/><stop offset="100%" stop-opacity="1" style="stop-color:rgb(155,155,155)"/></linearGradient><rect x="1307.268" y="283.268" width="457.464" height="457.464" transform="matrix(1,0,0,1,0,0)" fill="url(#_lgradient_15)"/><linearGradient id="_lgradient_16" x1="50%" y1="0%" x2="50.000000000000014%" y2="100%"><stop offset="0%" stop-opacity="1" style="stop-color:rgb(210,210,210)"/><stop offset="100%" stop-opacity="1" style="stop-color:rgb(132,132,132)"/></linearGradient><mask id="_mask_DtBbU6DW3YD7EnqxaRKuh328caFJtIJA"><rect x="1792" y="256" width="512" height="512" transform="matrix(1,0,0,1,0,0)" fill="white" stroke="none"/></mask><rect x="1792" y="256" width="512" height="512" transform="matrix(1,0,0,1,0,0)" fill="url(#_lgradient_16)" mask="url(#_mask_DtBbU6DW3YD7EnqxaRKuh328caFJtIJA)" vector-effect="non-scaling-stroke" stroke-width="6" stroke="rgb(0,0,0)" stroke-opacity="0.4" stroke-linejoin="miter" stroke-linecap="square" stroke-miterlimit="3"/><linearGradient id="_lgradient_17" x1="50%" y1="0%" x2="50.000000000000014%" y2="100%"><stop offset="0%" stop-opacity="1" style="stop-color:rgb(242,242,242)"/><stop offset="100%" stop-opacity="1" style="stop-color:rgb(155,155,155)"/></linearGradient><rect x="1819.268" y="283.268" width="457.464" height="457.464" transform="matrix(1,0,0,1,0,0)" fill="url(#_lgradient_17)"/></g><linearGradient id="_lgradient_18" x1="0%" y1="50%" x2="100%" y2="50%"><stop offset="0%" stop-opacity="0" style="stop-color:rgb(255,255,255)"/><stop offset="100%" stop-opacity="1" style="stop-color:rgb(255,255,255)"/></linearGradient><rect x="818.779" y="74.769" width="461.221" height="7.471" transform="matrix(1,0,0,1,0,0)" fill="url(#_lgradient_18)"/><linearGradient id="_lgradient_19" x1="0%" y1="50%" x2="100%" y2="50%"><stop offset="0%" stop-opacity="1" style="stop-color:rgb(255,255,255)"/><stop offset="100%" stop-opacity="0" style="stop-color:rgb(255,255,255)"/></linearGradient><rect x="1280" y="74.769" width="461.221" height="7.471" transform="matrix(1,0,0,1,0,0)" fill="url(#_lgradient_19)"/></svg>