<?xml version="1.0" standalone="no"?><!-- Generator: Gravit.io --><svg xmlns="http://www.w3.org/2000/svg" xmlns:xlink="http://www.w3.org/1999/xlink" style="isolation:isolate" viewBox="781.565 -119.434 134 134" width="134" height="134"><g id="Ground"><linearGradient id="_lgradient_44" x1="50%" y1="0%" x2="50.000000000000014%" y2="100%"><stop offset="0%" stop-opacity="1" style="stop-color:rgb(210,210,210)"/><stop offset="100%" stop-opacity="1" style="stop-color:rgb(132,132,132)"/></linearGradient><rect x="256" y="256" width="2048" height="512" transform="matrix(1,0,0,1,0,0)" fill="url(#_lgradient_44)"/><linearGradient id="_lgradient_45" x1="49.999999999999986%" y1="0%" x2="49.99999999999999%" y2="100%"><stop offset="0%" stop-opacity="1" style="stop-color:rgb(210,210,210)"/><stop offset="100%" stop-opacity="1" style="stop-color:rgb(132,132,132)"/></linearGradient><mask id="_mask_Mre57KraHu6fMB9sIEA9K9JV8PgbIzXK"><rect x="256" y="256" width="512" height="512" transform="matrix(1,0,0,1,0,0)" fill="white" stroke="none"/></mask><rect x="256" y="256" width="512" height="512" transform="matrix(1,0,0,1,0,0)" fill="url(#_lgradient_45)" mask="url(#_mask_Mre57KraHu6fMB9sIEA9K9JV8PgbIzXK)" vector-effect="non-scaling-stroke" stroke-width="6" stroke="rgb(0,0,0)" stroke-opacity="0.4" stroke-linejoin="miter" stroke-linecap="square" stroke-miterlimit="3"/><linearGradient id="_lgradient_46" x1="50%" y1="0%" x2="50.000000000000014%" y2="100%"><stop offset="0%" stop-opacity="1" style="stop-color:rgb(242,242,242)"/><stop offset="100%" stop-opacity="1" style="stop-color:rgb(155,155,155)"/></linearGradient><rect x="283.268" y="283.268" width="457.464" height="457.464" transform="matrix(1,0,0,1,0,0)" fill="url(#_lgradient_46)"/><linearGradient id="_lgradient_47" x1="50%" y1="0%" x2="50.000000000000014%" y2="100%"><stop offset="0%" stop-opacity="1" style="stop-color:rgb(210,210,210)"/><stop offset="100%" stop-opacity="1" style="stop-color:rgb(132,132,132)"/></linearGradient><mask id="_mask_lc8GHvxnzYZ8xKfilzIGufYWz7IS4rSE"><rect x="768" y="256" width="512" height="512" transform="matrix(1,0,0,1,0,0)" fill="white" stroke="none"/></mask><rect x="768" y="256" width="512" height="512" transform="matrix(1,0,0,1,0,0)" fill="url(#_lgradient_47)" mask="url(#_mask_lc8GHvxnzYZ8xKfilzIGufYWz7IS4rSE)" vector-effect="non-scaling-stroke" stroke-width="6" stroke="rgb(0,0,0)" stroke-opacity="0.4" stroke-linejoin="miter" stroke-linecap="square" stroke-miterlimit="3"/><linearGradient id="_lgradient_48" x1="50%" y1="0%" x2="50.000000000000014%" y2="100%"><stop offset="0%" stop-opacity="1" style="stop-color:rgb(242,242,242)"/><stop offset="100%" stop-opacity="1" style="stop-color:rgb(155,155,155)"/></linearGradient><rect x="795.268" y="283.268" width="457.464" height="457.464" transform="matrix(1,0,0,1,0,0)" fill="url(#_lgradient_48)"/><linearGradient id="_lgradient_49" x1="50%" y1="0%" x2="50.000000000000014%" y2="100%"><stop offset="0%" stop-opacity="1" style="stop-color:rgb(210,210,210)"/><stop offset="100%" stop-opacity="1" style="stop-color:rgb(132,132,132)"/></linearGradient><mask id="_mask_IwHNk457HXcemYdjGuF272gDBOcLdK3o"><rect x="1280" y="256" width="512" height="512" transform="matrix(1,0,0,1,0,0)" fill="white" stroke="none"/></mask><rect x="1280" y="256" width="512" height="512" transform="matrix(1,0,0,1,0,0)" fill="url(#_lgradient_49)" mask="url(#_mask_IwHNk457HXcemYdjGuF272gDBOcLdK3o)" vector-effect="non-scaling-stroke" stroke-width="6" stroke="rgb(0,0,0)" stroke-opacity="0.4" stroke-linejoin="miter" stroke-linecap="square" stroke-miterlimit="3"/><linearGradient id="_lgradient_50" x1="50%" y1="0%" x2="50.000000000000014%" y2="100%"><stop offset="0%" stop-opacity="1" style="stop-color:rgb(242,242,242)"/><stop offset="100%" stop-opacity="1" style="stop-color:rgb(155,155,155)"/></linearGradient><rect x="1307.268" y="283.268" width="457.464" height="457.464" transform="matrix(1,0,0,1,0,0)" fill="url(#_lgradient_50)"/><linearGradient id="_lgradient_51" x1="50%" y1="0%" x2="50.000000000000014%" y2="100%"><stop offset="0%" stop-opacity="1" style="stop-color:rgb(210,210,210)"/><stop offset="100%" stop-opacity="1" style="stop-color:rgb(132,132,132)"/></linearGradient><mask id="_mask_MKYKOLtzxtdQWwj35ipfPXSaXTw4ws0W"><rect x="1792" y="256" width="512" height="512" transform="matrix(1,0,0,1,0,0)" fill="white" stroke="none"/></mask><rect x="1792" y="256" width="512" height="512" transform="matrix(1,0,0,1,0,0)" fill="url(#_lgradient_51)" mask="url(#_mask_MKYKOLtzxtdQWwj35ipfPXSaXTw4ws0W)" vector-effect="non-scaling-stroke" stroke-width="6" stroke="rgb(0,0,0)" stroke-opacity="0.4" stroke-linejoin="miter" stroke-linecap="square" stroke-miterlimit="3"/><linearGradient id="_lgradient_52" x1="50%" y1="0%" x2="50.000000000000014%" y2="100%"><stop offset="0%" stop-opacity="1" style="stop-color:rgb(242,242,242)"/><stop offset="100%" stop-opacity="1" style="stop-color:rgb(155,155,155)"/></linearGradient><rect x="1819.268" y="283.268" width="457.464" height="457.464" transform="matrix(1,0,0,1,0,0)" fill="url(#_lgradient_52)"/></g><g id="Ground Line"><linearGradient id="_lgradient_53" x1="0%" y1="50%" x2="100%" y2="50%"><stop offset="0%" stop-opacity="0" style="stop-color:rgb(255,255,255)"/><stop offset="100%" stop-opacity="1" style="stop-color:rgb(255,255,255)"/></linearGradient><rect x="818.779" y="74.769" width="461.221" height="7.471" transform="matrix(1,0,0,1,0,0)" fill="url(#_lgradient_53)"/><linearGradient id="_lgradient_54" x1="0%" y1="50%" x2="100%" y2="50%"><stop offset="0%" stop-opacity="1" style="stop-color:rgb(255,255,255)"/><stop offset="100%" stop-opacity="0" style="stop-color:rgb(255,255,255)"/></linearGradient><rect x="1280" y="74.769" width="461.221" height="7.471" transform="matrix(1,0,0,1,0,0)" fill="url(#_lgradient_54)"/></g><g id="Player"><path d=" M 468.593 -116.592 L 596.593 -116.592 L 596.593 11.408 L 468.593 11.408 L 468.593 -116.592 Z  M 495.424 -89.76 L 569.761 -89.76 L 569.761 -15.423 L 495.424 -15.423 L 495.424 -89.76 Z " fill-rule="evenodd" fill="rgb(255,29,229)" vector-effect="non-scaling-stroke" stroke-width="5" stroke="rgb(0,0,0)" stroke-linejoin="round" stroke-linecap="square" stroke-miterlimit="3"/><rect x="513.093" y="-72.092" width="38.999" height="38.999" transform="matrix(1,0,0,1,0,0)" fill="rgb(63,255,29)" vector-effect="non-scaling-stroke" stroke-width="5" stroke="rgb(0,0,0)" stroke-linejoin="round" stroke-linecap="square" stroke-miterlimit="3"/></g><linearGradient id="_lgradient_55" x1="49.999999999999986%" y1="0%" x2="49.99999999999999%" y2="100%"><stop offset="12.173913043478262%" stop-opacity="1" style="stop-color:rgb(0,0,0)"/><stop offset="100%" stop-opacity="0" style="stop-color:rgb(0,0,0)"/></linearGradient><rect x="626.5" y="-116.592" width="128" height="128" transform="matrix(1,0,0,1,0,0)" fill="url(#_lgradient_55)" vector-effect="non-scaling-stroke" stroke-width="5" stroke="rgb(255,255,255)" stroke-linejoin="miter" stroke-linecap="square" stroke-miterlimit="3"/><linearGradient id="_lgradient_56" x1="49.999999999999986%" y1="0%" x2="49.99999999999999%" y2="100%"><stop offset="12.173913043478262%" stop-opacity="1" style="stop-color:rgb(0,0,0)"/><stop offset="100%" stop-opacity="0" style="stop-color:rgb(0,0,0)"/></linearGradient><polygon points="848.407,-116.592,912.407,11.408,784.407,11.408" fill="url(#_lgradient_56)" vector-effect="non-scaling-stroke" stroke-width="5" stroke="rgb(255,255,255)" stroke-linejoin="miter" stroke-linecap="square" stroke-miterlimit="3"/></svg>