<?xml version="1.0" standalone="no"?><!-- Generator: Gravit.io --><svg xmlns="http://www.w3.org/2000/svg" xmlns:xlink="http://www.w3.org/1999/xlink" style="isolation:isolate" viewBox="465.751 -119.434 134 134" width="134" height="134"><g id="Ground"><linearGradient id="_lgradient_20" x1="50%" y1="0%" x2="50.000000000000014%" y2="100%"><stop offset="0%" stop-opacity="1" style="stop-color:rgb(210,210,210)"/><stop offset="100%" stop-opacity="1" style="stop-color:rgb(132,132,132)"/></linearGradient><rect x="256" y="256" width="2048" height="512" transform="matrix(1,0,0,1,0,0)" fill="url(#_lgradient_20)"/><linearGradient id="_lgradient_21" x1="49.999999999999986%" y1="0%" x2="49.99999999999999%" y2="100%"><stop offset="0%" stop-opacity="1" style="stop-color:rgb(210,210,210)"/><stop offset="100%" stop-opacity="1" style="stop-color:rgb(132,132,132)"/></linearGradient><mask id="_mask_zZe0FRXjGYn67ahbFnQigILbcUmTMYtD"><rect x="256" y="256" width="512" height="512" transform="matrix(1,0,0,1,0,0)" fill="white" stroke="none"/></mask><rect x="256" y="256" width="512" height="512" transform="matrix(1,0,0,1,0,0)" fill="url(#_lgradient_21)" mask="url(#_mask_zZe0FRXjGYn67ahbFnQigILbcUmTMYtD)" vector-effect="non-scaling-stroke" stroke-width="6" stroke="rgb(0,0,0)" stroke-opacity="0.4" stroke-linejoin="miter" stroke-linecap="square" stroke-miterlimit="3"/><linearGradient id="_lgradient_22" x1="50%" y1="0%" x2="50.000000000000014%" y2="100%"><stop offset="0%" stop-opacity="1" style="stop-color:rgb(242,242,242)"/><stop offset="100%" stop-opacity="1" style="stop-color:rgb(155,155,155)"/></linearGradient><rect x="283.268" y="283.268" width="457.464" height="457.464" transform="matrix(1,0,0,1,0,0)" fill="url(#_lgradient_22)"/><linearGradient id="_lgradient_23" x1="50%" y1="0%" x2="50.000000000000014%" y2="100%"><stop offset="0%" stop-opacity="1" style="stop-color:rgb(210,210,210)"/><stop offset="100%" stop-opacity="1" style="stop-color:rgb(132,132,132)"/></linearGradient><mask id="_mask_QCuZyPOjEBLglx2h8rjVDbwVi8LWGueE"><rect x="768" y="256" width="512" height="512" transform="matrix(1,0,0,1,0,0)" fill="white" stroke="none"/></mask><rect x="768" y="256" width="512" height="512" transform="matrix(1,0,0,1,0,0)" fill="url(#_lgradient_23)" mask="url(#_mask_QCuZyPOjEBLglx2h8rjVDbwVi8LWGueE)" vector-effect="non-scaling-stroke" stroke-width="6" stroke="rgb(0,0,0)" stroke-opacity="0.4" stroke-linejoin="miter" stroke-linecap="square" stroke-miterlimit="3"/><linearGradient id="_lgradient_24" x1="50%" y1="0%" x2="50.000000000000014%" y2="100%"><stop offset="0%" stop-opacity="1" style="stop-color:rgb(242,242,242)"/><stop offset="100%" stop-opacity="1" style="stop-color:rgb(155,155,155)"/></linearGradient><rect x="795.268" y="283.268" width="457.464" height="457.464" transform="matrix(1,0,0,1,0,0)" fill="url(#_lgradient_24)"/><linearGradient id="_lgradient_25" x1="50%" y1="0%" x2="50.000000000000014%" y2="100%"><stop offset="0%" stop-opacity="1" style="stop-color:rgb(210,210,210)"/><stop offset="100%" stop-opacity="1" style="stop-color:rgb(132,132,132)"/></linearGradient><mask id="_mask_j5SxVOfMLWd2bi78nphV1ZOTduh0Hy3n"><rect x="1280" y="256" width="512" height="512" transform="matrix(1,0,0,1,0,0)" fill="white" stroke="none"/></mask><rect x="1280" y="256" width="512" height="512" transform="matrix(1,0,0,1,0,0)" fill="url(#_lgradient_25)" mask="url(#_mask_j5SxVOfMLWd2bi78nphV1ZOTduh0Hy3n)" vector-effect="non-scaling-stroke" stroke-width="6" stroke="rgb(0,0,0)" stroke-opacity="0.4" stroke-linejoin="miter" stroke-linecap="square" stroke-miterlimit="3"/><linearGradient id="_lgradient_26" x1="50%" y1="0%" x2="50.000000000000014%" y2="100%"><stop offset="0%" stop-opacity="1" style="stop-color:rgb(242,242,242)"/><stop offset="100%" stop-opacity="1" style="stop-color:rgb(155,155,155)"/></linearGradient><rect x="1307.268" y="283.268" width="457.464" height="457.464" transform="matrix(1,0,0,1,0,0)" fill="url(#_lgradient_26)"/><linearGradient id="_lgradient_27" x1="50%" y1="0%" x2="50.000000000000014%" y2="100%"><stop offset="0%" stop-opacity="1" style="stop-color:rgb(210,210,210)"/><stop offset="100%" stop-opacity="1" style="stop-color:rgb(132,132,132)"/></linearGradient><mask id="_mask_RYwF1FBR8JElzeckgq5ATVZknLZsSybR"><rect x="1792" y="256" width="512" height="512" transform="matrix(1,0,0,1,0,0)" fill="white" stroke="none"/></mask><rect x="1792" y="256" width="512" height="512" transform="matrix(1,0,0,1,0,0)" fill="url(#_lgradient_27)" mask="url(#_mask_RYwF1FBR8JElzeckgq5ATVZknLZsSybR)" vector-effect="non-scaling-stroke" stroke-width="6" stroke="rgb(0,0,0)" stroke-opacity="0.4" stroke-linejoin="miter" stroke-linecap="square" stroke-miterlimit="3"/><linearGradient id="_lgradient_28" x1="50%" y1="0%" x2="50.000000000000014%" y2="100%"><stop offset="0%" stop-opacity="1" style="stop-color:rgb(242,242,242)"/><stop offset="100%" stop-opacity="1" style="stop-color:rgb(155,155,155)"/></linearGradient><rect x="1819.268" y="283.268" width="457.464" height="457.464" transform="matrix(1,0,0,1,0,0)" fill="url(#_lgradient_28)"/></g><g id="Ground Line"><linearGradient id="_lgradient_29" x1="0%" y1="50%" x2="100%" y2="50%"><stop offset="0%" stop-opacity="0" style="stop-color:rgb(255,255,255)"/><stop offset="100%" stop-opacity="1" style="stop-color:rgb(255,255,255)"/></linearGradient><rect x="818.779" y="74.769" width="461.221" height="7.471" transform="matrix(1,0,0,1,0,0)" fill="url(#_lgradient_29)"/><linearGradient id="_lgradient_30" x1="0%" y1="50%" x2="100%" y2="50%"><stop offset="0%" stop-opacity="1" style="stop-color:rgb(255,255,255)"/><stop offset="100%" stop-opacity="0" style="stop-color:rgb(255,255,255)"/></linearGradient><rect x="1280" y="74.769" width="461.221" height="7.471" transform="matrix(1,0,0,1,0,0)" fill="url(#_lgradient_30)"/></g><g id="Player"><path d=" M 468.593 -116.592 L 596.593 -116.592 L 596.593 11.408 L 468.593 11.408 L 468.593 -116.592 Z  M 495.424 -89.76 L 569.761 -89.76 L 569.761 -15.423 L 495.424 -15.423 L 495.424 -89.76 Z " fill-rule="evenodd" fill="rgb(255,29,229)" vector-effect="non-scaling-stroke" stroke-width="5" stroke="rgb(0,0,0)" stroke-linejoin="round" stroke-linecap="square" stroke-miterlimit="3"/><rect x="513.093" y="-72.092" width="38.999" height="38.999" transform="matrix(1,0,0,1,0,0)" fill="rgb(63,255,29)" vector-effect="non-scaling-stroke" stroke-width="5" stroke="rgb(0,0,0)" stroke-linejoin="round" stroke-linecap="square" stroke-miterlimit="3"/></g></svg>