<?xml version="1.0" standalone="no"?><!-- Generator: Gravit.io --><svg xmlns="http://www.w3.org/2000/svg" xmlns:xlink="http://www.w3.org/1999/xlink" style="isolation:isolate" viewBox="256 256 2047 511" width="2047" height="511"><linearGradient id="_lgradient_0" x1="50%" y1="0%" x2="50.000000000000014%" y2="100%"><stop offset="0%" stop-opacity="1" style="stop-color:rgb(210,210,210)"/><stop offset="100%" stop-opacity="1" style="stop-color:rgb(132,132,132)"/></linearGradient><rect x="256" y="256" width="2048" height="512" transform="matrix(1,0,0,1,0,0)" fill="url(#_lgradient_0)"/><linearGradient id="_lgradient_1" x1="49.999999999999986%" y1="0%" x2="49.99999999999999%" y2="100%"><stop offset="0%" stop-opacity="1" style="stop-color:rgb(210,210,210)"/><stop offset="100%" stop-opacity="1" style="stop-color:rgb(132,132,132)"/></linearGradient><mask id="_mask_XEkIQNptgQxJhs2Mu4yxV74FfCn67EEb"><rect x="256" y="256" width="512" height="512" transform="matrix(1,0,0,1,0,0)" fill="white" stroke="none"/></mask><rect x="256" y="256" width="512" height="512" transform="matrix(1,0,0,1,0,0)" fill="url(#_lgradient_1)" mask="url(#_mask_XEkIQNptgQxJhs2Mu4yxV74FfCn67EEb)" vector-effect="non-scaling-stroke" stroke-width="6" stroke="rgb(0,0,0)" stroke-opacity="0.4" stroke-linejoin="miter" stroke-linecap="square" stroke-miterlimit="3"/><linearGradient id="_lgradient_2" x1="50%" y1="0%" x2="50.000000000000014%" y2="100%"><stop offset="0%" stop-opacity="1" style="stop-color:rgb(242,242,242)"/><stop offset="100%" stop-opacity="1" style="stop-color:rgb(155,155,155)"/></linearGradient><rect x="283.268" y="283.268" width="457.464" height="457.464" transform="matrix(1,0,0,1,0,0)" fill="url(#_lgradient_2)"/><linearGradient id="_lgradient_3" x1="50%" y1="0%" x2="50.000000000000014%" y2="100%"><stop offset="0%" stop-opacity="1" style="stop-color:rgb(210,210,210)"/><stop offset="100%" stop-opacity="1" style="stop-color:rgb(132,132,132)"/></linearGradient><mask id="_mask_PlHQaEdxaoPOBsW6KGAfsaeevfQpZc7d"><rect x="768" y="256" width="512" height="512" transform="matrix(1,0,0,1,0,0)" fill="white" stroke="none"/></mask><rect x="768" y="256" width="512" height="512" transform="matrix(1,0,0,1,0,0)" fill="url(#_lgradient_3)" mask="url(#_mask_PlHQaEdxaoPOBsW6KGAfsaeevfQpZc7d)" vector-effect="non-scaling-stroke" stroke-width="6" stroke="rgb(0,0,0)" stroke-opacity="0.4" stroke-linejoin="miter" stroke-linecap="square" stroke-miterlimit="3"/><linearGradient id="_lgradient_4" x1="50%" y1="0%" x2="50.000000000000014%" y2="100%"><stop offset="0%" stop-opacity="1" style="stop-color:rgb(242,242,242)"/><stop offset="100%" stop-opacity="1" style="stop-color:rgb(155,155,155)"/></linearGradient><rect x="795.268" y="283.268" width="457.464" height="457.464" transform="matrix(1,0,0,1,0,0)" fill="url(#_lgradient_4)"/><linearGradient id="_lgradient_5" x1="50%" y1="0%" x2="50.000000000000014%" y2="100%"><stop offset="0%" stop-opacity="1" style="stop-color:rgb(210,210,210)"/><stop offset="100%" stop-opacity="1" style="stop-color:rgb(132,132,132)"/></linearGradient><mask id="_mask_sc2wJsiZK3ih8LBR8nc3nVxdKBIb8eHb"><rect x="1280" y="256" width="512" height="512" transform="matrix(1,0,0,1,0,0)" fill="white" stroke="none"/></mask><rect x="1280" y="256" width="512" height="512" transform="matrix(1,0,0,1,0,0)" fill="url(#_lgradient_5)" mask="url(#_mask_sc2wJsiZK3ih8LBR8nc3nVxdKBIb8eHb)" vector-effect="non-scaling-stroke" stroke-width="6" stroke="rgb(0,0,0)" stroke-opacity="0.4" stroke-linejoin="miter" stroke-linecap="square" stroke-miterlimit="3"/><linearGradient id="_lgradient_6" x1="50%" y1="0%" x2="50.000000000000014%" y2="100%"><stop offset="0%" stop-opacity="1" style="stop-color:rgb(242,242,242)"/><stop offset="100%" stop-opacity="1" style="stop-color:rgb(155,155,155)"/></linearGradient><rect x="1307.268" y="283.268" width="457.464" height="457.464" transform="matrix(1,0,0,1,0,0)" fill="url(#_lgradient_6)"/><linearGradient id="_lgradient_7" x1="50%" y1="0%" x2="50.000000000000014%" y2="100%"><stop offset="0%" stop-opacity="1" style="stop-color:rgb(210,210,210)"/><stop offset="100%" stop-opacity="1" style="stop-color:rgb(132,132,132)"/></linearGradient><mask id="_mask_HR0l28tkg2LZiU0pYRE4rAEQMeqX7BAZ"><rect x="1792" y="256" width="512" height="512" transform="matrix(1,0,0,1,0,0)" fill="white" stroke="none"/></mask><rect x="1792" y="256" width="512" height="512" transform="matrix(1,0,0,1,0,0)" fill="url(#_lgradient_7)" mask="url(#_mask_HR0l28tkg2LZiU0pYRE4rAEQMeqX7BAZ)" vector-effect="non-scaling-stroke" stroke-width="6" stroke="rgb(0,0,0)" stroke-opacity="0.4" stroke-linejoin="miter" stroke-linecap="square" stroke-miterlimit="3"/><linearGradient id="_lgradient_8" x1="50%" y1="0%" x2="50.000000000000014%" y2="100%"><stop offset="0%" stop-opacity="1" style="stop-color:rgb(242,242,242)"/><stop offset="100%" stop-opacity="1" style="stop-color:rgb(155,155,155)"/></linearGradient><rect x="1819.268" y="283.268" width="457.464" height="457.464" transform="matrix(1,0,0,1,0,0)" fill="url(#_lgradient_8)"/></svg>