<?xml version="1.0" standalone="no"?><!-- Generator: Gravit.io --><svg xmlns="http://www.w3.org/2000/svg" xmlns:xlink="http://www.w3.org/1999/xlink" style="isolation:isolate" viewBox="0 0 512 512" width="512" height="512"><defs><clipPath id="_clipPath_FIIBryL8Rj5F9eQXgdlPAl39TgH0HhXd"><rect width="512" height="512"/></clipPath></defs><g clip-path="url(#_clipPath_FIIBryL8Rj5F9eQXgdlPAl39TgH0HhXd)"><radialGradient id="_rgradient_0" fx="50%" fy="50%" cx="50%" cy="50%" r="50%"><stop offset="0%" stop-opacity="1" style="stop-color:rgb(255,242,0)"/><stop offset="74.78260869565217%" stop-opacity="1" style="stop-color:rgb(254,241,0)"/><stop offset="100%" stop-opacity="1" style="stop-color:rgb(213,174,0)"/></radialGradient><mask id="_mask_P88UgA1WF1y5XTGLJoNTlVVHimn8SsKA"><path d=" M 0 256 C 0 114.71 114.71 0 256 0 C 397.29 0 512 114.71 512 256 C 512 397.29 397.29 512 256 512 C 114.71 512 0 397.29 0 256 Z " fill="white" stroke="none"/></mask><path d=" M 0 256 C 0 114.71 114.71 0 256 0 C 397.29 0 512 114.71 512 256 C 512 397.29 397.29 512 256 512 C 114.71 512 0 397.29 0 256 Z " fill="url(#_rgradient_0)" mask="url(#_mask_P88UgA1WF1y5XTGLJoNTlVVHimn8SsKA)" vector-effect="non-scaling-stroke" stroke-width="30" stroke="rgb(100,51,11)" stroke-linejoin="miter" stroke-linecap="square" stroke-miterlimit="3"/><radialGradient id="_rgradient_1" fx="50%" fy="50%" cx="50%" cy="50%" r="50%"><stop offset="63.47826086956522%" stop-opacity="1" style="stop-color:rgb(255,250,150)"/><stop offset="100%" stop-opacity="1" style="stop-color:rgb(213,174,0)"/></radialGradient><mask id="_mask_f4BdSQoVYn4DCxnxX8ohNpj4dBUYXsMW"><path d=" M 125.348 256 C 125.348 183.891 183.891 125.348 256 125.348 C 328.109 125.348 386.652 183.891 386.652 256 C 386.652 328.109 328.109 386.652 256 386.652 C 183.891 386.652 125.348 328.109 125.348 256 Z " fill="white" stroke="none"/></mask><path d=" M 125.348 256 C 125.348 183.891 183.891 125.348 256 125.348 C 328.109 125.348 386.652 183.891 386.652 256 C 386.652 328.109 328.109 386.652 256 386.652 C 183.891 386.652 125.348 328.109 125.348 256 Z " fill="url(#_rgradient_1)" mask="url(#_mask_f4BdSQoVYn4DCxnxX8ohNpj4dBUYXsMW)" vector-effect="non-scaling-stroke" stroke-width="30" stroke="rgb(151,89,7)" stroke-linejoin="miter" stroke-linecap="square" stroke-miterlimit="3"/><line x1="256" y1="14.976" x2="256" y2="89.441" vector-effect="non-scaling-stroke" stroke-width="25" stroke="rgb(255,0,0)" stroke-linejoin="miter" stroke-linecap="round" stroke-miterlimit="3"/><line x1="256" y1="14.052" x2="256" y2="67.019" vector-effect="non-scaling-stroke" stroke-width="10" stroke="rgb(255,255,255)" stroke-linejoin="miter" stroke-linecap="round" stroke-miterlimit="3"/><line x1="256" y1="500.948" x2="256" y2="448.948" vector-effect="non-scaling-stroke" stroke-width="15" stroke="rgb(0,0,0)" stroke-linejoin="miter" stroke-linecap="round" stroke-miterlimit="3"/><line x1="500.948" y1="256" x2="448.948" y2="256" vector-effect="non-scaling-stroke" stroke-width="15" stroke="rgb(0,0,0)" stroke-linejoin="miter" stroke-linecap="round" stroke-miterlimit="3"/><line x1="11.052" y1="256" x2="63.052" y2="256" vector-effect="non-scaling-stroke" stroke-width="15" stroke="rgb(0,0,0)" stroke-linejoin="miter" stroke-linecap="round" stroke-miterlimit="3"/><line x1="429.204" y1="82.796" x2="392.435" y2="119.565" vector-effect="non-scaling-stroke" stroke-width="15" stroke="rgb(0,0,0)" stroke-linejoin="miter" stroke-linecap="round" stroke-miterlimit="3"/><line x1="82.796" y1="429.204" x2="119.565" y2="392.435" vector-effect="non-scaling-stroke" stroke-width="15" stroke="rgb(0,0,0)" stroke-linejoin="miter" stroke-linecap="round" stroke-miterlimit="3"/><line x1="429.204" y1="429.204" x2="392.435" y2="392.435" vector-effect="non-scaling-stroke" stroke-width="15" stroke="rgb(0,0,0)" stroke-linejoin="miter" stroke-linecap="round" stroke-miterlimit="3"/><line x1="82.796" y1="82.796" x2="119.565" y2="119.565" vector-effect="non-scaling-stroke" stroke-width="15" stroke="rgb(0,0,0)" stroke-linejoin="miter" stroke-linecap="round" stroke-miterlimit="3"/><g opacity="0.26"><line x1="350.521" y1="30.024" x2="330.455" y2="77.997" vector-effect="non-scaling-stroke" stroke-width="15" stroke="rgb(0,0,0)" stroke-linejoin="miter" stroke-linecap="round" stroke-miterlimit="3"/></g><g opacity="0.26"><line x1="161.479" y1="481.976" x2="181.545" y2="434.003" vector-effect="non-scaling-stroke" stroke-width="15" stroke="rgb(0,0,0)" stroke-linejoin="miter" stroke-linecap="round" stroke-miterlimit="3"/></g><g opacity="0.26"><line x1="481.976" y1="350.521" x2="434.003" y2="330.455" vector-effect="non-scaling-stroke" stroke-width="15" stroke="rgb(0,0,0)" stroke-linejoin="miter" stroke-linecap="round" stroke-miterlimit="3"/></g><g opacity="0.26"><line x1="30.024" y1="161.479" x2="77.997" y2="181.545" vector-effect="non-scaling-stroke" stroke-width="15" stroke="rgb(0,0,0)" stroke-linejoin="miter" stroke-linecap="round" stroke-miterlimit="3"/></g><g opacity="0.26"><line x1="482.626" y1="163.048" x2="434.515" y2="182.781" vector-effect="non-scaling-stroke" stroke-width="15" stroke="rgb(0,0,0)" stroke-linejoin="miter" stroke-linecap="round" stroke-miterlimit="3"/></g><g opacity="0.26"><line x1="29.374" y1="348.952" x2="77.485" y2="329.219" vector-effect="non-scaling-stroke" stroke-width="15" stroke="rgb(0,0,0)" stroke-linejoin="miter" stroke-linecap="round" stroke-miterlimit="3"/></g><g opacity="0.26"><line x1="348.952" y1="482.626" x2="329.219" y2="434.515" vector-effect="non-scaling-stroke" stroke-width="15" stroke="rgb(0,0,0)" stroke-linejoin="miter" stroke-linecap="round" stroke-miterlimit="3"/></g><g opacity="0.26"><line x1="163.048" y1="29.374" x2="182.781" y2="77.485" vector-effect="non-scaling-stroke" stroke-width="15" stroke="rgb(0,0,0)" stroke-linejoin="miter" stroke-linecap="round" stroke-miterlimit="3"/></g><mask id="_mask_UUagSy5l0ppDHo2u5RIW03f46yzO4Ths"><path d=" M 0 256 C 0 114.71 114.71 0 256 0 C 397.29 0 512 114.71 512 256 C 512 397.29 397.29 512 256 512 C 114.71 512 0 397.29 0 256 Z " fill="white" stroke="none"/></mask><path d=" M 0 256 C 0 114.71 114.71 0 256 0 C 397.29 0 512 114.71 512 256 C 512 397.29 397.29 512 256 512 C 114.71 512 0 397.29 0 256 Z " fill="none" mask="url(#_mask_UUagSy5l0ppDHo2u5RIW03f46yzO4Ths)" vector-effect="non-scaling-stroke" stroke-width="30" stroke="rgb(100,51,11)" stroke-linejoin="miter" stroke-linecap="square" stroke-miterlimit="3"/></g></svg>