<?xml version="1.0" standalone="no"?><!-- Generator: Gravit.io --><svg xmlns="http://www.w3.org/2000/svg" xmlns:xlink="http://www.w3.org/1999/xlink" style="isolation:isolate" viewBox="525 285.867 313 209" width="313" height="209"><linearGradient id="_lgradient_0" x1="49.999999999999986%" y1="0%" x2="49.99999999999999%" y2="100%"><stop offset="0%" stop-opacity="1" style="stop-color:rgb(134,134,134)"/><stop offset="100%" stop-opacity="1" style="stop-color:rgb(198,198,198)"/></linearGradient><rect x="525" y="315" width="313" height="180" transform="matrix(1,0,0,1,0,0)" fill="url(#_lgradient_0)"/><linearGradient id="_lgradient_1" x1="49.999999999999986%" y1="0%" x2="49.99999999999999%" y2="100%"><stop offset="0%" stop-opacity="0.5" style="stop-color:rgb(30,30,30)"/><stop offset="100%" stop-opacity="0" style="stop-color:rgb(70,70,70)"/></linearGradient><rect x="525" y="315" width="313" height="79.4" transform="matrix(1,0,0,1,0,0)" fill="url(#_lgradient_1)"/><mask id="_mask_T6p68MzXVAjFT8kilDp4S5ow1qn9R8pc"><rect x="525" y="315" width="313" height="180" transform="matrix(1,0,0,1,0,0)" fill="white" stroke="none"/></mask><linearGradient id="_lgradient_2" x1="49.999999999999986%" y1="0%" x2="49.99999999999999%" y2="100%"><stop offset="10.434782608695652%" stop-opacity="1" style="stop-color:rgb(94,94,94)"/><stop offset="100%" stop-opacity="1" style="stop-color:rgb(53,53,53)"/></linearGradient><rect x="525" y="315" width="313" height="180" transform="matrix(1,0,0,1,0,0)" fill="none" mask="url(#_mask_T6p68MzXVAjFT8kilDp4S5ow1qn9R8pc)" vector-effect="non-scaling-stroke" stroke-width="30" stroke="url(#_lgradient_2)" stroke-linejoin="miter" stroke-linecap="square" stroke-miterlimit="3"/><linearGradient id="_lgradient_3" x1="49.999999999999986%" y1="0%" x2="49.99999999999999%" y2="100%"><stop offset="0%" stop-opacity="1" style="stop-color:rgb(142,142,142)"/><stop offset="81.73913043478261%" stop-opacity="1" style="stop-color:rgb(94,94,94)"/></linearGradient><rect x="525" y="285.867" width="44.714" height="35.533" transform="matrix(1,0,0,1,0,0)" fill="url(#_lgradient_3)"/><linearGradient id="_lgradient_4" x1="49.999999999999986%" y1="0%" x2="49.99999999999999%" y2="100%"><stop offset="0%" stop-opacity="1" style="stop-color:rgb(142,142,142)"/><stop offset="81.73913043478261%" stop-opacity="1" style="stop-color:rgb(94,94,94)"/></linearGradient><rect x="614.429" y="285.867" width="44.714" height="35.533" transform="matrix(1,0,0,1,0,0)" fill="url(#_lgradient_4)"/><linearGradient id="_lgradient_5" x1="49.999999999999986%" y1="0%" x2="49.99999999999999%" y2="100%"><stop offset="0%" stop-opacity="1" style="stop-color:rgb(142,142,142)"/><stop offset="81.73913043478261%" stop-opacity="1" style="stop-color:rgb(94,94,94)"/></linearGradient><rect x="703.857" y="285.867" width="44.714" height="35.533" transform="matrix(1,0,0,1,0,0)" fill="url(#_lgradient_5)"/><linearGradient id="_lgradient_6" x1="49.999999999999986%" y1="0%" x2="49.99999999999999%" y2="100%"><stop offset="0%" stop-opacity="1" style="stop-color:rgb(142,142,142)"/><stop offset="81.73913043478261%" stop-opacity="1" style="stop-color:rgb(94,94,94)"/></linearGradient><rect x="793.286" y="285.867" width="44.714" height="35.533" transform="matrix(1,0,0,1,0,0)" fill="url(#_lgradient_6)"/></svg>