<?xml version="1.0" encoding="UTF-8" standalone="no"?>
<!-- Created with Inkscape (http://www.inkscape.org/) -->

<svg
   width="600"
   height="500"
   viewBox="0 0 158.75 132.29167"
   version="1.1"
   id="svg5"
   inkscape:version="1.1.2 (0a00cf5339, 2022-02-04)"
   sodipodi:docname="win.svg"
   xmlns:inkscape="http://www.inkscape.org/namespaces/inkscape"
   xmlns:sodipodi="http://sodipodi.sourceforge.net/DTD/sodipodi-0.dtd"
   xmlns:xlink="http://www.w3.org/1999/xlink"
   xmlns="http://www.w3.org/2000/svg"
   xmlns:svg="http://www.w3.org/2000/svg">
  <sodipodi:namedview
     id="namedview7"
     pagecolor="#ffffff"
     bordercolor="#666666"
     borderopacity="1.0"
     inkscape:pageshadow="2"
     inkscape:pageopacity="0.0"
     inkscape:pagecheckerboard="0"
     inkscape:document-units="px"
     showgrid="false"
     inkscape:zoom="1.8101934"
     inkscape:cx="305.49223"
     inkscape:cy="396.64271"
     inkscape:window-width="1920"
     inkscape:window-height="954"
     inkscape:window-x="1920"
     inkscape:window-y="32"
     inkscape:window-maximized="1"
     inkscape:current-layer="layer1"
     units="px"
     width="600px"
     inkscape:object-paths="true"
     inkscape:object-nodes="true"
     inkscape:snap-intersection-paths="true"
     inkscape:snap-smooth-nodes="true"
     inkscape:snap-midpoints="true">
    <sodipodi:guide
       position="0,132.29167"
       orientation="0,600"
       id="guide1197" />
    <sodipodi:guide
       position="158.75,132.29167"
       orientation="500,0"
       id="guide1199" />
    <sodipodi:guide
       position="158.75,0"
       orientation="0,-600"
       id="guide1201" />
    <sodipodi:guide
       position="0,0"
       orientation="-500,0"
       id="guide1203" />
  </sodipodi:namedview>
  <defs
     id="defs2">
    <linearGradient
       inkscape:collect="always"
       id="linearGradient15706">
      <stop
         style="stop-color:#c6c6c6;stop-opacity:1"
         offset="0"
         id="stop15702" />
      <stop
         style="stop-color:#c6c6c6;stop-opacity:0"
         offset="1"
         id="stop15704" />
    </linearGradient>
    <linearGradient
       inkscape:collect="always"
       id="linearGradient46997">
      <stop
         style="stop-color:#a02c2c;stop-opacity:1"
         offset="0"
         id="stop46993" />
      <stop
         style="stop-color:#772121;stop-opacity:1"
         offset="1"
         id="stop46995" />
    </linearGradient>
    <linearGradient
       inkscape:collect="always"
       xlink:href="#linearGradient46997"
       id="linearGradient46999"
       x1="-289.3414"
       y1="-127.16611"
       x2="-280.69635"
       y2="-127.16611"
       gradientUnits="userSpaceOnUse"
       gradientTransform="matrix(1.1622382,0,0,1.1411166,138.26391,372.49037)" />
    <linearGradient
       inkscape:collect="always"
       xlink:href="#linearGradient15706"
       id="linearGradient15708"
       x1="-234.04486"
       y1="-78.320999"
       x2="-234.04486"
       y2="-85.713165"
       gradientUnits="userSpaceOnUse"
       gradientTransform="translate(6.5857576,-12.455045)" />
    <linearGradient
       inkscape:collect="always"
       xlink:href="#linearGradient15706"
       id="linearGradient15832"
       gradientUnits="userSpaceOnUse"
       gradientTransform="translate(6.5857512,-5.0628762)"
       x1="-234.04486"
       y1="-78.320999"
       x2="-234.04486"
       y2="-85.713165" />
    <linearGradient
       inkscape:collect="always"
       xlink:href="#linearGradient15706"
       id="linearGradient15855"
       gradientUnits="userSpaceOnUse"
       gradientTransform="translate(6.585746,2.3292882)"
       x1="-234.04486"
       y1="-78.320999"
       x2="-234.04486"
       y2="-85.713165" />
    <linearGradient
       inkscape:collect="always"
       xlink:href="#linearGradient15706"
       id="linearGradient15878"
       gradientUnits="userSpaceOnUse"
       gradientTransform="translate(6.5857536,9.7214568)"
       x1="-234.04486"
       y1="-78.320999"
       x2="-234.04486"
       y2="-85.713165" />
  </defs>
  <g
     inkscape:label="Layer 1"
     inkscape:groupmode="layer"
     id="layer1"
     transform="translate(306.754,198.0197)">
    <text
       xml:space="preserve"
       style="font-style:italic;font-variant:normal;font-weight:normal;font-stretch:normal;font-size:10.5833px;line-height:1.25;font-family:sans-serif;-inkscape-font-specification:'sans-serif, Italic';font-variant-ligatures:normal;font-variant-caps:normal;font-variant-numeric:normal;font-variant-east-asian:normal;fill:#000000;fill-opacity:1;stroke:none;stroke-width:0.264583"
       x="-81.502846"
       y="-191.71222"
       id="text18000"><tspan
         sodipodi:role="line"
         id="tspan27266"
         x="-81.502846"
         y="-191.71222" /></text>
    <rect
       style="fill:#faf6f3;fill-opacity:1;stroke-width:1.03565"
       id="rect904"
       width="132.29169"
       height="158.75002"
       x="-198.0197"
       y="148.004"
       transform="rotate(90)" />
    <rect
       style="fill:url(#linearGradient46999);fill-opacity:1;stroke:none;stroke-width:0;stroke-miterlimit:4;stroke-dasharray:none;stroke-opacity:1"
       id="rect46866"
       width="10.047611"
       height="158.75"
       x="-198.0197"
       y="148.004"
       transform="rotate(90)" />
    <g
       aria-label="Minigame points:"
       id="text4463"
       style="font-size:10.5833px;line-height:1.25;stroke-width:0.264583"
       transform="translate(14.288792,0.09876531)">
      <path
         d="m -233.66833,-163.11145 h 0.77773 l 0.98443,2.62517 0.98961,-2.62517 h 0.77773 v 3.85765 h -0.50902 v -3.38739 l -0.99477,2.64583 h -0.52451 l -0.99478,-2.64583 v 3.38739 h -0.50642 z"
         style="font-size:5.29167px;-inkscape-font-specification:'sans-serif, Normal'"
         id="path15881" />
      <path
         d="m -229.12339,-162.14768 h 0.47542 v 2.89388 h -0.47542 z m 0,-1.12655 h 0.47542 v 0.60203 h -0.47542 z"
         style="font-size:5.29167px;-inkscape-font-specification:'sans-serif, Normal'"
         id="path15883" />
      <path
         d="m -225.24765,-161.00046 v 1.74666 h -0.47543 v -1.73116 q 0,-0.41083 -0.1602,-0.61495 -0.16019,-0.20412 -0.48059,-0.20412 -0.38499,0 -0.60719,0.24546 -0.22221,0.24546 -0.22221,0.66921 v 1.63556 h -0.47801 v -2.89388 h 0.47801 v 0.44958 q 0.17053,-0.26096 0.40049,-0.39015 0.23254,-0.12919 0.53485,-0.12919 0.49868,0 0.75448,0.31005 0.2558,0.30748 0.2558,0.90693 z"
         style="font-size:5.29167px;-inkscape-font-specification:'sans-serif, Normal'"
         id="path15885" />
      <path
         d="m -224.29939,-162.14768 h 0.47542 v 2.89388 h -0.47542 z m 0,-1.12655 h 0.47542 v 0.60203 h -0.47542 z"
         style="font-size:5.29167px;-inkscape-font-specification:'sans-serif, Normal'"
         id="path15887" />
      <path
         d="m -220.92492,-160.73433 q 0,-0.51676 -0.21446,-0.80099 -0.21187,-0.28422 -0.59686,-0.28422 -0.3824,0 -0.59686,0.28422 -0.21188,0.28423 -0.21188,0.80099 0,0.51418 0.21188,0.7984 0.21446,0.28422 0.59686,0.28422 0.38499,0 0.59686,-0.28422 0.21446,-0.28422 0.21446,-0.7984 z m 0.47542,1.12138 q 0,0.73897 -0.32814,1.09812 -0.32815,0.36174 -1.00511,0.36174 -0.25063,0 -0.47284,-0.0388 -0.22221,-0.0362 -0.4315,-0.11369 v -0.4625 q 0.20929,0.11369 0.41342,0.16795 0.20412,0.0543 0.41599,0.0543 0.46767,0 0.70022,-0.24547 0.23254,-0.24287 0.23254,-0.73638 v -0.23513 q -0.14728,0.2558 -0.37724,0.3824 -0.22996,0.12661 -0.55035,0.12661 -0.53227,0 -0.85783,-0.40566 -0.32556,-0.40566 -0.32556,-1.07487 0,-0.67179 0.32556,-1.07745 0.32556,-0.40566 0.85783,-0.40566 0.32039,0 0.55035,0.1266 0.22996,0.12661 0.37724,0.38241 v -0.43925 h 0.47542 z"
         style="font-size:5.29167px;-inkscape-font-specification:'sans-serif, Normal'"
         id="path15889" />
      <path
         d="m -218.15506,-160.70849 q -0.57619,0 -0.7984,0.13177 -0.22221,0.13178 -0.22221,0.44959 0,0.25321 0.16536,0.40307 0.16795,0.14728 0.45476,0.14728 0.39532,0 0.63303,-0.27905 0.2403,-0.28164 0.2403,-0.74673 v -0.10593 z m 0.94826,-0.19637 v 1.65106 h -0.47542 v -0.43925 q -0.16278,0.26355 -0.40566,0.39016 -0.24288,0.12402 -0.59428,0.12402 -0.44442,0 -0.70797,-0.24805 -0.26096,-0.25063 -0.26096,-0.66921 0,-0.48834 0.32556,-0.73639 0.32814,-0.24804 0.97668,-0.24804 h 0.66663 v -0.0465 q 0,-0.32815 -0.21704,-0.50643 -0.21446,-0.18087 -0.60462,-0.18087 -0.24804,0 -0.48317,0.0594 -0.23513,0.0594 -0.45217,0.17828 v -0.43925 q 0.26097,-0.10077 0.50643,-0.14986 0.24546,-0.0517 0.47801,-0.0517 0.62786,0 0.93792,0.32556 0.31006,0.32556 0.31006,0.98702 z"
         style="font-size:5.29167px;-inkscape-font-specification:'sans-serif, Normal'"
         id="path15891" />
      <path
         d="m -213.97443,-161.59216 q 0.17828,-0.32039 0.42633,-0.47284 0.24804,-0.15244 0.58394,-0.15244 0.45217,0 0.69763,0.31781 0.24547,0.31522 0.24547,0.89917 v 1.74666 h -0.47801 v -1.73116 q 0,-0.416 -0.14728,-0.61753 -0.14728,-0.20154 -0.44958,-0.20154 -0.36949,0 -0.58395,0.24546 -0.21446,0.24546 -0.21446,0.66921 v 1.63556 h -0.478 v -1.73116 q 0,-0.41858 -0.14728,-0.61753 -0.14728,-0.20154 -0.45475,-0.20154 -0.36432,0 -0.57878,0.24804 -0.21446,0.24547 -0.21446,0.66663 v 1.63556 h -0.478 v -2.89388 h 0.478 v 0.44958 q 0.16278,-0.26613 0.39016,-0.39274 0.22738,-0.1266 0.54002,-0.1266 0.31523,0 0.53485,0.16019 0.22221,0.1602 0.32815,0.46509 z"
         style="font-size:5.29167px;-inkscape-font-specification:'sans-serif, Normal'"
         id="path15893" />
      <path
         d="m -208.5975,-160.8196 v 0.23255 h -2.18591 q 0.031,0.49092 0.29455,0.74931 0.26614,0.2558 0.73898,0.2558 0.27388,0 0.52968,-0.0672 0.25838,-0.0672 0.5116,-0.20154 v 0.44958 q -0.2558,0.10852 -0.52452,0.16537 -0.26872,0.0568 -0.54519,0.0568 -0.69246,0 -1.09812,-0.40307 -0.40308,-0.40308 -0.40308,-1.09038 0,-0.71055 0.38241,-1.12655 0.38499,-0.41857 1.03611,-0.41857 0.58395,0 0.92243,0.37723 0.34106,0.37466 0.34106,1.02061 z m -0.47542,-0.13952 q -0.005,-0.39016 -0.21963,-0.6227 -0.21187,-0.23255 -0.56327,-0.23255 -0.39791,0 -0.63821,0.22479 -0.23771,0.2248 -0.27388,0.63304 z"
         style="font-size:5.29167px;-inkscape-font-specification:'sans-serif, Normal'"
         id="path15895" />
      <path
         d="m -205.67519,-159.68788 v 1.53479 h -0.47801 v -3.99459 h 0.47801 v 0.43925 q 0.14986,-0.25838 0.37723,-0.38241 0.22996,-0.1266 0.54777,-0.1266 0.5271,0 0.85525,0.41857 0.33073,0.41858 0.33073,1.10071 0,0.68213 -0.33073,1.10071 -0.32815,0.41858 -0.85525,0.41858 -0.31781,0 -0.54777,-0.12402 -0.22737,-0.12661 -0.37723,-0.38499 z m 1.61747,-1.01028 q 0,-0.52451 -0.21704,-0.82165 -0.21446,-0.29973 -0.5917,-0.29973 -0.37724,0 -0.59428,0.29973 -0.21445,0.29714 -0.21445,0.82165 0,0.52452 0.21445,0.82424 0.21704,0.29714 0.59428,0.29714 0.37724,0 0.5917,-0.29714 0.21704,-0.29972 0.21704,-0.82424 z"
         style="font-size:5.29167px;-inkscape-font-specification:'sans-serif, Normal'"
         id="path15897" />
      <path
         d="m -201.65477,-161.81437 q -0.3824,0 -0.60461,0.29973 -0.22221,0.29713 -0.22221,0.81648 0,0.51935 0.21963,0.81908 0.22221,0.29714 0.60719,0.29714 0.37983,0 0.60204,-0.29973 0.2222,-0.29972 0.2222,-0.81649 0,-0.51418 -0.2222,-0.8139 -0.22221,-0.30231 -0.60204,-0.30231 z m 0,-0.40307 q 0.62012,0 0.97411,0.40307 0.35398,0.40308 0.35398,1.11621 0,0.71055 -0.35398,1.11622 -0.35399,0.40307 -0.97411,0.40307 -0.6227,0 -0.97668,-0.40307 -0.3514,-0.40567 -0.3514,-1.11622 0,-0.71313 0.3514,-1.11621 0.35398,-0.40307 0.97668,-0.40307 z"
         style="font-size:5.29167px;-inkscape-font-specification:'sans-serif, Normal'"
         id="path15899" />
      <path
         d="m -199.53861,-162.14768 h 0.47542 v 2.89388 h -0.47542 z m 0,-1.12655 h 0.47542 v 0.60203 h -0.47542 z"
         style="font-size:5.29167px;-inkscape-font-specification:'sans-serif, Normal'"
         id="path15901" />
      <path
         d="m -195.66288,-161.00046 v 1.74666 h -0.47542 v -1.73116 q 0,-0.41083 -0.1602,-0.61495 -0.1602,-0.20412 -0.48059,-0.20412 -0.38499,0 -0.6072,0.24546 -0.22221,0.24546 -0.22221,0.66921 v 1.63556 h -0.47801 v -2.89388 h 0.47801 v 0.44958 q 0.17053,-0.26096 0.40049,-0.39015 0.23255,-0.12919 0.53486,-0.12919 0.49867,0 0.75447,0.31005 0.2558,0.30748 0.2558,0.90693 z"
         style="font-size:5.29167px;-inkscape-font-specification:'sans-serif, Normal'"
         id="path15903" />
      <path
         d="m -194.24436,-162.96934 v 0.82166 h 0.97927 v 0.36949 h -0.97927 v 1.57096 q 0,0.35398 0.0956,0.45475 0.0982,0.10077 0.39533,0.10077 h 0.48834 v 0.39791 h -0.48834 q -0.55036,0 -0.75965,-0.20412 -0.20929,-0.20671 -0.20929,-0.74931 v -1.57096 h -0.34881 v -0.36949 h 0.34881 v -0.82166 z"
         style="font-size:5.29167px;-inkscape-font-specification:'sans-serif, Normal'"
         id="path15905" />
      <path
         d="m -190.79496,-162.06242 v 0.44959 q -0.20154,-0.10335 -0.41858,-0.15503 -0.21704,-0.0517 -0.44958,-0.0517 -0.35399,0 -0.53227,0.10852 -0.1757,0.10853 -0.1757,0.32557 0,0.16536 0.12661,0.26096 0.12661,0.093 0.50901,0.17829 l 0.16278,0.0362 q 0.50643,0.10852 0.7183,0.30747 0.21446,0.19638 0.21446,0.55036 0,0.40308 -0.32039,0.6382 -0.31781,0.23513 -0.87592,0.23513 -0.23254,0 -0.48576,-0.0465 -0.25063,-0.0439 -0.52968,-0.13436 v -0.49092 q 0.26355,0.13694 0.51935,0.2067 0.2558,0.0672 0.50643,0.0672 0.33589,0 0.51676,-0.11369 0.18087,-0.11627 0.18087,-0.32556 0,-0.19378 -0.13178,-0.29714 -0.12919,-0.10335 -0.57102,-0.19895 l -0.16537,-0.0388 q -0.44183,-0.093 -0.6382,-0.28422 -0.19637,-0.19379 -0.19637,-0.52968 0,-0.40825 0.28939,-0.63046 0.28939,-0.2222 0.82165,-0.2222 0.26355,0 0.4961,0.0388 0.23254,0.0388 0.42891,0.11627 z"
         style="font-size:5.29167px;-inkscape-font-specification:'sans-serif, Normal'"
         id="path15907" />
      <path
         d="m -189.76143,-159.91009 h 0.54519 v 0.65629 h -0.54519 z m 0,-2.07998 h 0.54519 v 0.65629 h -0.54519 z"
         style="font-size:5.29167px;-inkscape-font-specification:'sans-serif, Normal'"
         id="path15909" />
    </g>
    <g
       aria-label="Adjusted points:"
       id="text4463-8"
       style="font-size:10.5833px;line-height:1.25;stroke-width:0.264583"
       transform="translate(14.288792,0.09876531)">
      <path
         d="m -232.3506,-134.53251 -0.70796,1.91978 h 1.41852 z m -0.29455,-0.51418 h 0.59169 l 1.4702,3.85765 h -0.5426 l -0.3514,-0.98961 h -1.73892 l -0.3514,0.98961 h -0.55035 z"
         style="font-size:5.29167px;-inkscape-font-specification:'sans-serif, Normal'"
         id="path15930" />
      <path
         d="m -228.2294,-133.64367 v -1.5658 h 0.47543 v 4.02043 h -0.47543 v -0.43408 q -0.14986,0.25838 -0.37982,0.38499 -0.22738,0.12402 -0.54777,0.12402 -0.52452,0 -0.85525,-0.41858 -0.32814,-0.41858 -0.32814,-1.10071 0,-0.68213 0.32814,-1.10071 0.33073,-0.41858 0.85525,-0.41858 0.32039,0 0.54777,0.12661 0.22996,0.12402 0.37982,0.38241 z m -1.62005,1.01027 q 0,0.52452 0.21445,0.82424 0.21704,0.29714 0.59428,0.29714 0.37724,0 0.59428,-0.29714 0.21704,-0.29972 0.21704,-0.82424 0,-0.52451 -0.21704,-0.82165 -0.21704,-0.29973 -0.59428,-0.29973 -0.37724,0 -0.59428,0.29973 -0.21445,0.29714 -0.21445,0.82165 z"
         style="font-size:5.29167px;-inkscape-font-specification:'sans-serif, Normal'"
         id="path15932" />
      <path
         d="m -226.7747,-134.08292 h 0.47542 v 2.94556 q 0,0.55293 -0.21187,0.80098 -0.20929,0.24805 -0.67697,0.24805 h -0.18086 v -0.40308 h 0.1266 q 0.27131,0 0.36949,-0.12661 0.0982,-0.12402 0.0982,-0.51934 z m 0,-1.12655 h 0.47542 v 0.60203 h -0.47542 z"
         style="font-size:5.29167px;-inkscape-font-specification:'sans-serif, Normal'"
         id="path15934" />
      <path
         d="m -225.3536,-132.33109 v -1.75183 h 0.47542 v 1.73374 q 0,0.41083 0.1602,0.61754 0.1602,0.20412 0.48059,0.20412 0.38499,0 0.6072,-0.24547 0.22479,-0.24546 0.22479,-0.66921 v -1.64072 h 0.47542 v 2.89388 h -0.47542 v -0.44442 q -0.17312,0.26355 -0.40308,0.39274 -0.22737,0.12661 -0.52968,0.12661 -0.49868,0 -0.75706,-0.31006 -0.25838,-0.31006 -0.25838,-0.90692 z m 1.19631,-1.8216 z"
         style="font-size:5.29167px;-inkscape-font-specification:'sans-serif, Normal'"
         id="path15936" />
      <path
         d="m -220.10586,-133.99766 v 0.44959 q -0.20154,-0.10335 -0.41858,-0.15503 -0.21704,-0.0517 -0.44958,-0.0517 -0.35399,0 -0.53227,0.10852 -0.1757,0.10852 -0.1757,0.32556 0,0.16537 0.12661,0.26097 0.12661,0.093 0.50901,0.17828 l 0.16278,0.0362 q 0.50643,0.10852 0.7183,0.30747 0.21446,0.19637 0.21446,0.55036 0,0.40307 -0.32039,0.6382 -0.31781,0.23513 -0.87592,0.23513 -0.23254,0 -0.48576,-0.0465 -0.25063,-0.0439 -0.52968,-0.13436 v -0.49092 q 0.26355,0.13694 0.51935,0.2067 0.2558,0.0672 0.50643,0.0672 0.33589,0 0.51676,-0.11369 0.18087,-0.11627 0.18087,-0.32556 0,-0.19379 -0.13178,-0.29714 -0.12919,-0.10335 -0.57102,-0.19895 l -0.16536,-0.0388 q -0.44184,-0.093 -0.63821,-0.28422 -0.19637,-0.19379 -0.19637,-0.52968 0,-0.40825 0.28939,-0.63046 0.28939,-0.22221 0.82165,-0.22221 0.26355,0 0.4961,0.0388 0.23254,0.0388 0.42891,0.11627 z"
         style="font-size:5.29167px;-inkscape-font-specification:'sans-serif, Normal'"
         id="path15938" />
      <path
         d="m -218.72351,-134.90458 v 0.82166 h 0.97927 v 0.36948 h -0.97927 v 1.57097 q 0,0.35398 0.0956,0.45475 0.0982,0.10077 0.39533,0.10077 h 0.48834 v 0.39791 h -0.48834 q -0.55036,0 -0.75965,-0.20412 -0.20929,-0.20671 -0.20929,-0.74931 v -1.57097 h -0.34881 v -0.36948 h 0.34881 v -0.82166 z"
         style="font-size:5.29167px;-inkscape-font-specification:'sans-serif, Normal'"
         id="path15940" />
      <path
         d="m -214.64366,-132.75484 v 0.23255 h -2.18591 q 0.031,0.49092 0.29456,0.7493 0.26613,0.2558 0.73897,0.2558 0.27388,0 0.52968,-0.0672 0.25839,-0.0672 0.5116,-0.20153 v 0.44958 q -0.2558,0.10852 -0.52452,0.16537 -0.26871,0.0568 -0.54518,0.0568 -0.69247,0 -1.09813,-0.40308 -0.40307,-0.40307 -0.40307,-1.09037 0,-0.71055 0.3824,-1.12655 0.38499,-0.41858 1.03612,-0.41858 0.58394,0 0.92242,0.37724 0.34106,0.37466 0.34106,1.02061 z m -0.47542,-0.13952 q -0.005,-0.39016 -0.21962,-0.62271 -0.21188,-0.23254 -0.56328,-0.23254 -0.39791,0 -0.6382,0.22479 -0.23771,0.2248 -0.27389,0.63304 z"
         style="font-size:5.29167px;-inkscape-font-specification:'sans-serif, Normal'"
         id="path15942" />
      <path
         d="m -211.95906,-133.64367 v -1.5658 h 0.47542 v 4.02043 h -0.47542 v -0.43408 q -0.14986,0.25838 -0.37983,0.38499 -0.22737,0.12402 -0.54777,0.12402 -0.52451,0 -0.85524,-0.41858 -0.32815,-0.41858 -0.32815,-1.10071 0,-0.68213 0.32815,-1.10071 0.33073,-0.41858 0.85524,-0.41858 0.3204,0 0.54777,0.12661 0.22997,0.12402 0.37983,0.38241 z m -1.62006,1.01027 q 0,0.52452 0.21446,0.82424 0.21704,0.29714 0.59428,0.29714 0.37723,0 0.59428,-0.29714 0.21704,-0.29972 0.21704,-0.82424 0,-0.52451 -0.21704,-0.82165 -0.21705,-0.29973 -0.59428,-0.29973 -0.37724,0 -0.59428,0.29973 -0.21446,0.29714 -0.21446,0.82165 z"
         style="font-size:5.29167px;-inkscape-font-specification:'sans-serif, Normal'"
         id="path15944" />
      <path
         d="m -208.36238,-131.62312 v 1.53479 h -0.47801 v -3.99459 h 0.47801 v 0.43925 q 0.14986,-0.25839 0.37724,-0.38241 0.22996,-0.12661 0.54777,-0.12661 0.5271,0 0.85524,0.41858 0.33073,0.41858 0.33073,1.10071 0,0.68213 -0.33073,1.10071 -0.32814,0.41858 -0.85524,0.41858 -0.31781,0 -0.54777,-0.12402 -0.22738,-0.12661 -0.37724,-0.38499 z m 1.61747,-1.01028 q 0,-0.52451 -0.21704,-0.82165 -0.21445,-0.29973 -0.59169,-0.29973 -0.37724,0 -0.59428,0.29973 -0.21446,0.29714 -0.21446,0.82165 0,0.52452 0.21446,0.82424 0.21704,0.29714 0.59428,0.29714 0.37724,0 0.59169,-0.29714 0.21704,-0.29972 0.21704,-0.82424 z"
         style="font-size:5.29167px;-inkscape-font-specification:'sans-serif, Normal'"
         id="path15946" />
      <path
         d="m -204.34195,-133.74961 q -0.38241,0 -0.60462,0.29972 -0.22221,0.29714 -0.22221,0.81649 0,0.51935 0.21963,0.81907 0.22221,0.29714 0.6072,0.29714 0.37982,0 0.60203,-0.29972 0.22221,-0.29972 0.22221,-0.81649 0,-0.51418 -0.22221,-0.8139 -0.22221,-0.30231 -0.60203,-0.30231 z m 0,-0.40308 q 0.62012,0 0.9741,0.40308 0.35398,0.40308 0.35398,1.11621 0,0.71055 -0.35398,1.11621 -0.35398,0.40308 -0.9741,0.40308 -0.6227,0 -0.97669,-0.40308 -0.3514,-0.40566 -0.3514,-1.11621 0,-0.71313 0.3514,-1.11621 0.35399,-0.40308 0.97669,-0.40308 z"
         style="font-size:5.29167px;-inkscape-font-specification:'sans-serif, Normal'"
         id="path15948" />
      <path
         d="m -202.2258,-134.08292 h 0.47542 v 2.89388 h -0.47542 z m 0,-1.12655 h 0.47542 v 0.60203 h -0.47542 z"
         style="font-size:5.29167px;-inkscape-font-specification:'sans-serif, Normal'"
         id="path15950" />
      <path
         d="m -198.35007,-132.93571 v 1.74667 h -0.47542 v -1.73116 q 0,-0.41083 -0.1602,-0.61495 -0.16019,-0.20412 -0.48059,-0.20412 -0.38499,0 -0.6072,0.24546 -0.22221,0.24546 -0.22221,0.66921 v 1.63556 h -0.478 v -2.89388 h 0.478 v 0.44958 q 0.17054,-0.26096 0.4005,-0.39016 0.23254,-0.12919 0.53485,-0.12919 0.49868,0 0.75447,0.31006 0.2558,0.30748 0.2558,0.90692 z"
         style="font-size:5.29167px;-inkscape-font-specification:'sans-serif, Normal'"
         id="path15952" />
      <path
         d="m -196.93155,-134.90458 v 0.82166 h 0.97927 v 0.36948 h -0.97927 v 1.57097 q 0,0.35398 0.0956,0.45475 0.0982,0.10077 0.39533,0.10077 h 0.48834 v 0.39791 h -0.48834 q -0.55036,0 -0.75965,-0.20412 -0.20929,-0.20671 -0.20929,-0.74931 v -1.57097 h -0.34881 v -0.36948 h 0.34881 v -0.82166 z"
         style="font-size:5.29167px;-inkscape-font-specification:'sans-serif, Normal'"
         id="path15954" />
      <path
         d="m -193.48214,-133.99766 v 0.44959 q -0.20154,-0.10335 -0.41858,-0.15503 -0.21705,-0.0517 -0.44959,-0.0517 -0.35398,0 -0.53227,0.10852 -0.1757,0.10852 -0.1757,0.32556 0,0.16537 0.12661,0.26097 0.12661,0.093 0.50901,0.17828 l 0.16278,0.0362 q 0.50643,0.10852 0.71831,0.30747 0.21445,0.19637 0.21445,0.55036 0,0.40307 -0.32039,0.6382 -0.31781,0.23513 -0.87592,0.23513 -0.23254,0 -0.48575,-0.0465 -0.25063,-0.0439 -0.52969,-0.13436 v -0.49092 q 0.26355,0.13694 0.51935,0.2067 0.2558,0.0672 0.50643,0.0672 0.3359,0 0.51676,-0.11369 0.18087,-0.11627 0.18087,-0.32556 0,-0.19379 -0.13177,-0.29714 -0.12919,-0.10335 -0.57103,-0.19895 l -0.16536,-0.0388 q -0.44184,-0.093 -0.63821,-0.28422 -0.19637,-0.19379 -0.19637,-0.52968 0,-0.40825 0.28939,-0.63046 0.28939,-0.22221 0.82166,-0.22221 0.26355,0 0.49609,0.0388 0.23254,0.0388 0.42892,0.11627 z"
         style="font-size:5.29167px;-inkscape-font-specification:'sans-serif, Normal'"
         id="path15956" />
      <path
         d="m -192.44861,-131.84533 h 0.54518 v 0.65629 h -0.54518 z m 0,-2.07998 h 0.54518 v 0.65629 h -0.54518 z"
         style="font-size:5.29167px;-inkscape-font-specification:'sans-serif, Normal'"
         id="path15958" />
    </g>
    <rect
       style="fill:url(#linearGradient15708);fill-opacity:1;stroke-width:0.529167"
       id="rect15700"
       width="145.41829"
       height="7.39217"
       x="-300.16824"
       y="-98.168213" />
    <rect
       style="fill:url(#linearGradient15832);fill-opacity:1;stroke-width:0.529167"
       id="rect15700-5"
       width="145.41829"
       height="7.39217"
       x="-300.16824"
       y="-90.776047" />
    <rect
       style="fill:url(#linearGradient15855);fill-opacity:1;stroke-width:0.529167"
       id="rect15700-4"
       width="145.41829"
       height="7.39217"
       x="-300.16824"
       y="-83.383881" />
    <rect
       style="fill:url(#linearGradient15878);fill-opacity:1;stroke-width:0.529167"
       id="rect15700-0"
       width="145.41829"
       height="7.39217"
       x="-300.16824"
       y="-75.991714" />
    <g
       aria-label="Chapter 1"
       id="text7610"
       style="font-size:10.5833px;line-height:1.25;fill:#b2b2b2;stroke-width:0.264583">
      <path
         d="m -295.16987,-96.352043 -0.10594,0.550355 q -0.24804,-0.250631 -0.5271,-0.372071 -0.27646,-0.12144 -0.59944,-0.12144 -0.44184,0 -0.77773,0.211874 -0.33332,0.211873 -0.5762,0.645956 -0.15503,0.279053 -0.23771,0.591695 -0.0801,0.310059 -0.0801,0.625285 0,0.5271 0.27131,0.803569 0.27388,0.276469 0.79323,0.276469 0.35915,0 0.68988,-0.113688 0.33073,-0.116272 0.64337,-0.346232 l -0.12144,0.617534 q -0.30747,0.131775 -0.6227,0.198954 -0.31264,0.06718 -0.62787,0.06718 -0.74156,0 -1.16013,-0.403076 -0.416,-0.403076 -0.416,-1.121379 0,-0.459921 0.15761,-0.904338 0.1602,-0.444418 0.45734,-0.811321 0.31523,-0.390157 0.7183,-0.576192 0.40566,-0.186036 0.9431,-0.186036 0.33073,0 0.62528,0.09302 0.29714,0.09043 0.55294,0.273885 z"
         style="font-style:italic;font-size:5.29167px;-inkscape-font-specification:'sans-serif, Italic'"
         id="path15307" />
      <path
         d="m -292.20364,-94.538199 -0.33848,1.746665 h -0.47801 l 0.33848,-1.728578 q 0.0233,-0.12144 0.0362,-0.214457 0.0129,-0.09302 0.0129,-0.147278 0,-0.217042 -0.13695,-0.338481 -0.13694,-0.12144 -0.3824,-0.12144 -0.38241,0 -0.66405,0.258382 -0.27905,0.258383 -0.36173,0.687297 l -0.31264,1.604555 h -0.47543 l 0.7829,-4.020429 h 0.47543 l -0.30748,1.5813 q 0.18087,-0.24288 0.4625,-0.382406 0.28164,-0.142111 0.5917,-0.142111 0.38241,0 0.5917,0.206706 0.21187,0.206706 0.21187,0.58136 0,0.09302 -0.0129,0.198955 -0.0103,0.105937 -0.0336,0.22996 z"
         style="font-style:italic;font-size:5.29167px;-inkscape-font-specification:'sans-serif, Italic'"
         id="path15309" />
      <path
         d="m -288.95577,-94.442597 -0.32298,1.651063 h -0.47543 l 0.0879,-0.43925 q -0.20928,0.258382 -0.478,0.387573 -0.26614,0.126607 -0.59428,0.126607 -0.36949,0 -0.6072,-0.224792 -0.23513,-0.227377 -0.23513,-0.58136 0,-0.50643 0.40308,-0.800986 0.40566,-0.294555 1.11621,-0.294555 h 0.66146 l 0.0258,-0.126608 q 0.005,-0.02067 0.008,-0.04393 0.003,-0.02584 0.003,-0.07751 0,-0.229961 -0.18862,-0.356568 -0.18603,-0.129191 -0.52451,-0.129191 -0.23255,0 -0.47801,0.05943 -0.24288,0.05943 -0.50126,0.178284 l 0.0827,-0.43925 q 0.26872,-0.100769 0.52452,-0.149862 0.25838,-0.05168 0.49867,-0.05168 0.5116,0 0.77773,0.222209 0.26872,0.222209 0.26872,0.645956 0,0.08527 -0.0129,0.201538 -0.0129,0.113688 -0.0387,0.24288 z m -0.51418,0.19637 h -0.47543 q -0.58394,0 -0.86558,0.157613 -0.27905,0.15503 -0.27905,0.483175 0,0.227377 0.14211,0.356568 0.14469,0.129191 0.39791,0.129191 0.38757,0 0.67696,-0.276469 0.28939,-0.279053 0.3824,-0.744141 z"
         style="font-style:italic;font-size:5.29167px;-inkscape-font-specification:'sans-serif, Italic'"
         id="path15311" />
      <path
         d="m -285.93012,-94.574372 q 0,-0.379822 -0.16536,-0.581361 -0.16537,-0.201538 -0.47543,-0.201538 -0.21187,0 -0.40566,0.108521 -0.1912,0.10852 -0.34106,0.315226 -0.14728,0.204122 -0.23513,0.49351 -0.0879,0.289389 -0.0879,0.573609 0,0.361735 0.16537,0.558106 0.16536,0.193787 0.47025,0.193787 0.22479,0 0.416,-0.105937 0.19378,-0.105937 0.33073,-0.307475 0.14728,-0.211874 0.23771,-0.498678 0.0904,-0.286804 0.0904,-0.54777 z m -1.47278,-0.671794 q 0.19121,-0.250631 0.44959,-0.379822 0.26096,-0.129192 0.57878,-0.129192 0.44441,0 0.68988,0.291972 0.24546,0.289389 0.24546,0.813905 0,0.428914 -0.15245,0.819072 -0.15244,0.387573 -0.43925,0.695048 -0.1912,0.204122 -0.43149,0.312643 -0.2403,0.105936 -0.50643,0.105936 -0.30748,0 -0.51677,-0.126607 -0.20929,-0.129191 -0.31264,-0.382406 l -0.29714,1.534791 h -0.47542 l 0.77773,-3.99459 h 0.47542 z"
         style="font-style:italic;font-size:5.29167px;-inkscape-font-specification:'sans-serif, Italic'"
         id="path15313" />
      <path
         d="m -282.95872,-95.685416 -0.0723,0.369486 h -0.94826 l -0.30748,1.570965 q -0.0155,0.08785 -0.0233,0.147278 -0.008,0.05943 -0.008,0.09302 0,0.165365 0.0982,0.240296 0.10077,0.07493 0.3204,0.07493 h 0.48059 l -0.0801,0.397909 h -0.45475 q -0.42375,0 -0.63304,-0.165365 -0.2067,-0.165365 -0.2067,-0.501262 0,-0.05943 0.008,-0.129191 0.008,-0.07235 0.0233,-0.157613 l 0.30748,-1.570965 h -0.40308 l 0.0749,-0.369486 h 0.39533 l 0.16019,-0.821656 h 0.47543 l -0.15762,0.821656 z"
         style="font-style:italic;font-size:5.29167px;-inkscape-font-specification:'sans-serif, Italic'"
         id="path15315" />
      <path
         d="m -280.57644,-94.496858 q 0.008,-0.04134 0.0103,-0.08527 0.005,-0.04393 0.005,-0.08785 0,-0.315226 -0.18604,-0.498678 -0.18345,-0.183451 -0.50126,-0.183451 -0.35398,0 -0.62528,0.224792 -0.27131,0.222209 -0.41083,0.633037 z m 0.41342,0.372071 h -2.21176 q -0.0155,0.09819 -0.0207,0.155029 -0.005,0.05684 -0.005,0.09819 0,0.359152 0.21962,0.555522 0.22221,0.196371 0.62529,0.196371 0.31005,0 0.58652,-0.06976 0.27647,-0.06976 0.51418,-0.204122 l -0.0904,0.470256 q -0.2558,0.103353 -0.52968,0.155029 -0.2713,0.05168 -0.55294,0.05168 -0.60203,0 -0.92759,-0.286804 -0.32298,-0.289388 -0.32298,-0.819072 0,-0.452169 0.1602,-0.839742 0.16278,-0.390158 0.47542,-0.695049 0.20154,-0.191203 0.47801,-0.294556 0.27905,-0.103353 0.59169,-0.103353 0.49093,0 0.78032,0.294556 0.29197,0.294556 0.29197,0.79065 0,0.118856 -0.0155,0.255799 -0.0155,0.134358 -0.0465,0.289388 z"
         style="font-style:italic;font-size:5.29167px;-inkscape-font-specification:'sans-serif, Italic'"
         id="path15317" />
      <path
         d="m -277.50685,-95.246166 q -0.0724,-0.03876 -0.16537,-0.05943 -0.093,-0.02067 -0.19895,-0.02067 -0.37983,0 -0.66405,0.289388 -0.28422,0.286805 -0.37723,0.76998 l -0.29198,1.475363 h -0.47542 l 0.56586,-2.893882 h 0.47542 l -0.0904,0.449585 q 0.18862,-0.250631 0.44958,-0.38499 0.26355,-0.134359 0.56069,-0.134359 0.0775,0 0.15245,0.01034 0.0749,0.0078 0.14986,0.02842 z"
         style="font-style:italic;font-size:5.29167px;-inkscape-font-specification:'sans-serif, Italic'"
         id="path15319" />
      <path
         d="m -275.66459,-93.230784 h 0.85266 l 0.5762,-2.968813 -0.96377,0.186035 0.0904,-0.449585 0.9586,-0.186035 h 0.52452 l -0.66663,3.418398 h 0.85008 l -0.0827,0.43925 h -2.22467 z"
         style="font-style:italic;font-size:5.29167px;-inkscape-font-specification:'sans-serif, Italic'"
         id="path15321" />
    </g>
    <g
       aria-label="Chapter 2"
       id="text7610-1"
       style="font-size:10.5833px;line-height:1.25;fill:#b2b2b2;stroke-width:0.264583">
      <path
         d="m -295.13355,-88.922477 -0.10594,0.550354 q -0.24805,-0.250631 -0.5271,-0.372071 -0.27647,-0.121439 -0.59945,-0.121439 -0.44183,0 -0.77773,0.211873 -0.33331,0.211874 -0.57619,0.645956 -0.15503,0.279053 -0.23771,0.591696 -0.0801,0.310058 -0.0801,0.625285 0,0.5271 0.2713,0.803569 0.27389,0.276469 0.79324,0.276469 0.35915,0 0.68988,-0.113688 0.33073,-0.116272 0.64337,-0.346233 l -0.12144,0.617534 q -0.30748,0.131775 -0.6227,0.198954 -0.31265,0.06718 -0.62787,0.06718 -0.74156,0 -1.16014,-0.403077 -0.41599,-0.403076 -0.41599,-1.121379 0,-0.45992 0.15761,-0.904338 0.1602,-0.444417 0.45734,-0.81132 0.31522,-0.390158 0.7183,-0.576193 0.40566,-0.186035 0.94309,-0.186035 0.33073,0 0.62529,0.09302 0.29714,0.09043 0.55294,0.273886 z"
         style="font-style:italic;font-size:5.29167px;-inkscape-font-specification:'sans-serif, Italic'"
         id="path15324" />
      <path
         d="m -292.16732,-87.108633 -0.33848,1.746664 h -0.47801 l 0.33848,-1.728578 q 0.0233,-0.121439 0.0362,-0.214457 0.0129,-0.09302 0.0129,-0.147278 0,-0.217041 -0.13694,-0.338481 -0.13694,-0.121439 -0.38241,-0.121439 -0.3824,0 -0.66404,0.258382 -0.27905,0.258382 -0.36173,0.687297 l -0.31265,1.604554 h -0.47542 l 0.7829,-4.020429 h 0.47542 l -0.30747,1.5813 q 0.18086,-0.242879 0.4625,-0.382406 0.28164,-0.14211 0.5917,-0.14211 0.3824,0 0.59169,0.206706 0.21187,0.206706 0.21187,0.58136 0,0.09302 -0.0129,0.198954 -0.0103,0.105937 -0.0336,0.229961 z"
         style="font-style:italic;font-size:5.29167px;-inkscape-font-specification:'sans-serif, Italic'"
         id="path15326" />
      <path
         d="m -288.91946,-87.013032 -0.32298,1.651063 h -0.47542 l 0.0878,-0.43925 q -0.20929,0.258382 -0.47801,0.387574 -0.26613,0.126607 -0.59428,0.126607 -0.36948,0 -0.60719,-0.224793 -0.23513,-0.227376 -0.23513,-0.58136 0,-0.506429 0.40307,-0.800985 0.40566,-0.294556 1.11622,-0.294556 h 0.66145 l 0.0258,-0.126607 q 0.005,-0.02067 0.008,-0.04393 0.003,-0.02584 0.003,-0.07752 0,-0.22996 -0.18862,-0.356568 -0.18604,-0.129191 -0.52452,-0.129191 -0.23254,0 -0.478,0.05943 -0.24288,0.05943 -0.50127,0.178284 l 0.0827,-0.43925 q 0.26871,-0.100769 0.52451,-0.149862 0.25838,-0.05168 0.49868,-0.05168 0.5116,0 0.77773,0.222209 0.26872,0.222208 0.26872,0.645955 0,0.08527 -0.0129,0.201539 -0.0129,0.113688 -0.0388,0.242879 z m -0.51418,0.196371 h -0.47542 q -0.58395,0 -0.86558,0.157613 -0.27906,0.155029 -0.27906,0.483175 0,0.227376 0.14211,0.356567 0.1447,0.129191 0.39791,0.129191 0.38758,0 0.67696,-0.276469 0.28939,-0.279053 0.38241,-0.744141 z"
         style="font-style:italic;font-size:5.29167px;-inkscape-font-specification:'sans-serif, Italic'"
         id="path15328" />
      <path
         d="m -285.8938,-87.144807 q 0,-0.379822 -0.16537,-0.58136 -0.16536,-0.201538 -0.47542,-0.201538 -0.21187,0 -0.40566,0.10852 -0.1912,0.108521 -0.34106,0.315227 -0.14728,0.204122 -0.23513,0.49351 -0.0879,0.289388 -0.0879,0.573609 0,0.361735 0.16536,0.558105 0.16537,0.193787 0.47026,0.193787 0.22479,0 0.41599,-0.105937 0.19379,-0.105936 0.33073,-0.307475 0.14728,-0.211873 0.23771,-0.498677 0.0904,-0.286805 0.0904,-0.547771 z m -1.47278,-0.671794 q 0.1912,-0.250631 0.44958,-0.379822 0.26097,-0.129191 0.57878,-0.129191 0.44442,0 0.68988,0.291972 0.24547,0.289388 0.24547,0.813904 0,0.428915 -0.15245,0.819072 -0.15245,0.387574 -0.43925,0.695049 -0.1912,0.204122 -0.4315,0.312642 -0.24029,0.105937 -0.50643,0.105937 -0.30747,0 -0.51676,-0.126607 -0.20929,-0.129192 -0.31265,-0.382406 l -0.29714,1.534791 h -0.47542 l 0.77773,-3.994591 h 0.47543 z"
         style="font-style:italic;font-size:5.29167px;-inkscape-font-specification:'sans-serif, Italic'"
         id="path15330" />
      <path
         d="m -282.9224,-88.255851 -0.0724,0.369487 h -0.94826 l -0.30748,1.570964 q -0.0155,0.08785 -0.0232,0.147278 -0.008,0.05943 -0.008,0.09302 0,0.165364 0.0982,0.240295 0.10077,0.07493 0.32039,0.07493 h 0.4806 l -0.0801,0.397909 h -0.45476 q -0.42374,0 -0.63303,-0.165365 -0.20671,-0.165364 -0.20671,-0.501261 0,-0.05943 0.008,-0.129192 0.008,-0.07235 0.0233,-0.157613 l 0.30747,-1.570964 h -0.40307 l 0.0749,-0.369487 h 0.39532 l 0.1602,-0.821656 h 0.47542 l -0.15761,0.821656 z"
         style="font-style:italic;font-size:5.29167px;-inkscape-font-specification:'sans-serif, Italic'"
         id="path15332" />
      <path
         d="m -280.54012,-87.067292 q 0.008,-0.04134 0.0103,-0.08527 0.005,-0.04393 0.005,-0.08785 0,-0.315227 -0.18603,-0.498678 -0.18345,-0.183452 -0.50126,-0.183452 -0.35399,0 -0.62529,0.224793 -0.2713,0.222209 -0.41083,0.633037 z m 0.41341,0.37207 h -2.21175 q -0.0155,0.09819 -0.0207,0.15503 -0.005,0.05684 -0.005,0.09819 0,0.359151 0.21963,0.555522 0.22221,0.19637 0.62528,0.19637 0.31006,0 0.58653,-0.06976 0.27647,-0.06976 0.51418,-0.204122 l -0.0904,0.470256 q -0.2558,0.103353 -0.52969,0.155029 -0.2713,0.05168 -0.55294,0.05168 -0.60203,0 -0.92759,-0.286804 -0.32298,-0.289389 -0.32298,-0.819072 0,-0.452169 0.1602,-0.839743 0.16278,-0.390157 0.47542,-0.695048 0.20154,-0.191203 0.47801,-0.294556 0.27906,-0.103353 0.5917,-0.103353 0.49092,0 0.78031,0.294556 0.29197,0.294556 0.29197,0.79065 0,0.118855 -0.0155,0.255798 -0.0155,0.134359 -0.0465,0.289388 z"
         style="font-style:italic;font-size:5.29167px;-inkscape-font-specification:'sans-serif, Italic'"
         id="path15334" />
      <path
         d="m -277.47054,-87.816601 q -0.0723,-0.03876 -0.16536,-0.05943 -0.093,-0.02067 -0.19896,-0.02067 -0.37982,0 -0.66404,0.289389 -0.28422,0.286804 -0.37724,0.769979 l -0.29197,1.475363 h -0.47542 l 0.56585,-2.893882 h 0.47543 l -0.0904,0.449585 q 0.18862,-0.250631 0.44959,-0.384989 0.26355,-0.134359 0.56069,-0.134359 0.0775,0 0.15244,0.01033 0.0749,0.0078 0.14987,0.02842 z"
         style="font-style:italic;font-size:5.29167px;-inkscape-font-specification:'sans-serif, Italic'"
         id="path15336" />
      <path
         d="m -273.53279,-87.224905 -1.66657,1.428854 h 1.84227 l -0.0904,0.434082 h -2.50373 l 0.0853,-0.43925 1.74149,-1.49345 q 0.34882,-0.302307 0.49351,-0.529683 0.14728,-0.229961 0.14728,-0.470256 0,-0.250631 -0.1757,-0.408244 -0.1757,-0.157614 -0.45992,-0.157614 -0.24546,0 -0.54519,0.08785 -0.29972,0.08785 -0.64078,0.255799 l 0.0956,-0.516765 q 0.32039,-0.126607 0.61236,-0.191203 0.29198,-0.06459 0.54002,-0.06459 0.50643,0 0.81391,0.268717 0.31006,0.268718 0.31006,0.705384 0,0.294556 -0.14728,0.563274 -0.14728,0.266133 -0.45217,0.5271 z"
         style="font-style:italic;font-size:5.29167px;-inkscape-font-specification:'sans-serif, Italic'"
         id="path15338" />
    </g>
    <g
       aria-label="Chapter 3"
       id="text7610-9"
       style="font-size:10.5833px;line-height:1.25;fill:#b2b2b2;stroke-width:0.264583">
      <path
         d="m -295.08695,-81.86766 -0.10594,0.550354 q -0.24805,-0.250631 -0.5271,-0.37207 -0.27647,-0.12144 -0.59945,-0.12144 -0.44183,0 -0.77773,0.211873 -0.33331,0.211874 -0.57619,0.645956 -0.15503,0.279053 -0.23771,0.591696 -0.0801,0.310059 -0.0801,0.625285 0,0.5271 0.2713,0.803569 0.27389,0.276469 0.79324,0.276469 0.35915,0 0.68988,-0.113688 0.33073,-0.116272 0.64337,-0.346232 l -0.12144,0.617533 q -0.30748,0.131775 -0.6227,0.198955 -0.31265,0.06718 -0.62787,0.06718 -0.74156,0 -1.16014,-0.403076 -0.41599,-0.403077 -0.41599,-1.12138 0,-0.45992 0.15761,-0.904338 0.1602,-0.444417 0.45734,-0.81132 0.31522,-0.390157 0.7183,-0.576193 0.40566,-0.186035 0.94309,-0.186035 0.33073,0 0.62529,0.09302 0.29714,0.09043 0.55294,0.273885 z"
         style="font-style:italic;font-size:5.29167px;-inkscape-font-specification:'sans-serif, Italic'"
         id="path15341" />
      <path
         d="m -292.12072,-80.053816 -0.33848,1.746664 h -0.47801 l 0.33848,-1.728577 q 0.0232,-0.12144 0.0362,-0.214458 0.0129,-0.09302 0.0129,-0.147278 0,-0.217041 -0.13694,-0.338481 -0.13694,-0.121439 -0.38241,-0.121439 -0.3824,0 -0.66404,0.258382 -0.27905,0.258382 -0.36173,0.687297 l -0.31265,1.604554 h -0.47542 l 0.7829,-4.020429 h 0.47542 l -0.30747,1.5813 q 0.18086,-0.242879 0.4625,-0.382406 0.28164,-0.14211 0.5917,-0.14211 0.3824,0 0.59169,0.206706 0.21188,0.206706 0.21188,0.58136 0,0.09302 -0.0129,0.198954 -0.0103,0.105937 -0.0336,0.229961 z"
         style="font-style:italic;font-size:5.29167px;-inkscape-font-specification:'sans-serif, Italic'"
         id="path15343" />
      <path
         d="m -288.87286,-79.958215 -0.32298,1.651063 h -0.47542 l 0.0879,-0.43925 q -0.20929,0.258383 -0.47801,0.387574 -0.26613,0.126607 -0.59428,0.126607 -0.36948,0 -0.60719,-0.224793 -0.23513,-0.227376 -0.23513,-0.58136 0,-0.506429 0.40307,-0.800985 0.40566,-0.294556 1.11622,-0.294556 h 0.66145 l 0.0258,-0.126607 q 0.005,-0.02067 0.008,-0.04393 0.003,-0.02584 0.003,-0.07752 0,-0.22996 -0.18862,-0.356567 -0.18604,-0.129192 -0.52452,-0.129192 -0.23254,0 -0.478,0.05943 -0.24288,0.05943 -0.50127,0.178284 l 0.0827,-0.43925 q 0.26871,-0.100769 0.52451,-0.149862 0.25838,-0.05168 0.49868,-0.05168 0.5116,0 0.77773,0.222209 0.26872,0.222209 0.26872,0.645956 0,0.08527 -0.0129,0.201538 -0.0129,0.113688 -0.0388,0.242879 z m -0.51418,0.196371 h -0.47542 q -0.58395,0 -0.86558,0.157613 -0.27906,0.155029 -0.27906,0.483175 0,0.227376 0.14211,0.356568 0.1447,0.129191 0.39791,0.129191 0.38758,0 0.67697,-0.276469 0.28938,-0.279053 0.3824,-0.744141 z"
         style="font-style:italic;font-size:5.29167px;-inkscape-font-specification:'sans-serif, Italic'"
         id="path15345" />
      <path
         d="m -285.8472,-80.08999 q 0,-0.379822 -0.16537,-0.58136 -0.16536,-0.201538 -0.47542,-0.201538 -0.21187,0 -0.40566,0.10852 -0.1912,0.108521 -0.34106,0.315227 -0.14728,0.204122 -0.23513,0.49351 -0.0879,0.289388 -0.0879,0.573609 0,0.361735 0.16536,0.558106 0.16537,0.193786 0.47026,0.193786 0.22479,0 0.41599,-0.105936 0.19379,-0.105937 0.33073,-0.307475 0.14728,-0.211874 0.23772,-0.498678 0.0904,-0.286805 0.0904,-0.547771 z m -1.47278,-0.671794 q 0.1912,-0.250631 0.44958,-0.379822 0.26097,-0.129191 0.57878,-0.129191 0.44442,0 0.68988,0.291972 0.24547,0.289388 0.24547,0.813904 0,0.428915 -0.15245,0.819072 -0.15245,0.387574 -0.43925,0.695049 -0.1912,0.204122 -0.4315,0.312642 -0.24029,0.105937 -0.50643,0.105937 -0.30747,0 -0.51676,-0.126607 -0.20929,-0.129191 -0.31265,-0.382406 l -0.29713,1.534791 h -0.47543 l 0.77773,-3.994591 h 0.47543 z"
         style="font-style:italic;font-size:5.29167px;-inkscape-font-specification:'sans-serif, Italic'"
         id="path15347" />
      <path
         d="m -282.8758,-81.201034 -0.0723,0.369487 h -0.94826 l -0.30748,1.570964 q -0.0155,0.08785 -0.0233,0.147278 -0.008,0.05943 -0.008,0.09302 0,0.165365 0.0982,0.240296 0.10077,0.07493 0.32039,0.07493 h 0.4806 l -0.0801,0.397909 h -0.45476 q -0.42374,0 -0.63303,-0.165364 -0.20671,-0.165365 -0.20671,-0.501262 0,-0.05943 0.008,-0.129191 0.008,-0.07235 0.0233,-0.157614 l 0.30747,-1.570964 h -0.40307 l 0.0749,-0.369487 h 0.39532 l 0.1602,-0.821656 h 0.47542 l -0.15761,0.821656 z"
         style="font-style:italic;font-size:5.29167px;-inkscape-font-specification:'sans-serif, Italic'"
         id="path15349" />
      <path
         d="m -280.49352,-80.012475 q 0.008,-0.04134 0.0103,-0.08527 0.005,-0.04393 0.005,-0.08785 0,-0.315227 -0.18603,-0.498678 -0.18345,-0.183452 -0.50126,-0.183452 -0.35399,0 -0.62529,0.224793 -0.2713,0.222209 -0.41083,0.633037 z m 0.41341,0.37207 h -2.21175 q -0.0155,0.09819 -0.0207,0.15503 -0.005,0.05684 -0.005,0.09819 0,0.359152 0.21963,0.555522 0.22221,0.196371 0.62528,0.196371 0.31006,0 0.58653,-0.06976 0.27647,-0.06976 0.51418,-0.204122 l -0.0904,0.470256 q -0.2558,0.103353 -0.52969,0.15503 -0.2713,0.05168 -0.55293,0.05168 -0.60204,0 -0.9276,-0.286804 -0.32298,-0.289388 -0.32298,-0.819072 0,-0.452169 0.1602,-0.839743 0.16278,-0.390157 0.47543,-0.695048 0.20153,-0.191203 0.478,-0.294556 0.27906,-0.103353 0.5917,-0.103353 0.49092,0 0.78031,0.294556 0.29197,0.294556 0.29197,0.79065 0,0.118856 -0.0155,0.255798 -0.0155,0.134359 -0.0465,0.289388 z"
         style="font-style:italic;font-size:5.29167px;-inkscape-font-specification:'sans-serif, Italic'"
         id="path15351" />
      <path
         d="m -277.42394,-80.761784 q -0.0723,-0.03876 -0.16536,-0.05943 -0.093,-0.02067 -0.19896,-0.02067 -0.37982,0 -0.66404,0.289388 -0.28422,0.286804 -0.37724,0.769979 l -0.29197,1.475363 h -0.47542 l 0.56585,-2.893882 h 0.47543 l -0.0904,0.449585 q 0.18862,-0.25063 0.44959,-0.384989 0.26355,-0.134359 0.56069,-0.134359 0.0775,0 0.15244,0.01033 0.0749,0.0078 0.14987,0.02842 z"
         style="font-style:italic;font-size:5.29167px;-inkscape-font-specification:'sans-serif, Italic'"
         id="path15353" />
      <path
         d="m -275.08816,-82.069198 q 0.28422,-0.08268 0.55035,-0.124024 0.26872,-0.04134 0.5271,-0.04134 0.5116,0 0.81132,0.227376 0.29973,0.227377 0.29973,0.609783 0,0.374654 -0.23771,0.643372 -0.23513,0.268717 -0.65113,0.366903 0.32556,0.09302 0.47801,0.289388 0.15244,0.19637 0.15244,0.519348 0,0.310059 -0.14986,0.58136 -0.14727,0.271302 -0.42633,0.467672 -0.21187,0.149862 -0.50643,0.222209 -0.29455,0.07493 -0.67954,0.07493 -0.24288,0 -0.49093,-0.04909 -0.24805,-0.04651 -0.50384,-0.14211 l 0.0956,-0.49351 q 0.24288,0.134359 0.48834,0.201538 0.24805,0.0646 0.50643,0.0646 0.50901,0 0.82424,-0.260966 0.31781,-0.26355 0.31781,-0.68213 0,-0.268717 -0.20154,-0.413411 -0.20154,-0.147278 -0.57619,-0.147278 h -0.44959 l 0.0801,-0.423747 h 0.47542 q 0.42892,0 0.67438,-0.196371 0.24805,-0.19637 0.24805,-0.532267 0,-0.24288 -0.18087,-0.374655 -0.18087,-0.134359 -0.50901,-0.134359 -0.24805,0 -0.50901,0.05426 -0.25839,0.05168 -0.53744,0.157613 z"
         style="font-style:italic;font-size:5.29167px;-inkscape-font-specification:'sans-serif, Italic'"
         id="path15355" />
    </g>
    <g
       aria-label="Chapter 4"
       id="text7610-1-4"
       style="font-size:10.5833px;line-height:1.25;fill:#b2b2b2;stroke-width:0.264583">
      <path
         d="m -295.05064,-74.438095 -0.10593,0.550355 q -0.24805,-0.250631 -0.5271,-0.372071 -0.27647,-0.12144 -0.59945,-0.12144 -0.44183,0 -0.77773,0.211874 -0.33331,0.211873 -0.57619,0.645956 -0.15503,0.279053 -0.23772,0.591695 -0.0801,0.310059 -0.0801,0.625285 0,0.5271 0.2713,0.803569 0.27388,0.27647 0.79323,0.27647 0.35915,0 0.68988,-0.113689 0.33073,-0.116272 0.64337,-0.346232 l -0.12144,0.617534 q -0.30747,0.131775 -0.6227,0.198954 -0.31264,0.06718 -0.62787,0.06718 -0.74155,0 -1.16013,-0.403077 -0.416,-0.403076 -0.416,-1.121379 0,-0.459921 0.15762,-0.904338 0.16019,-0.444418 0.45733,-0.811321 0.31523,-0.390157 0.7183,-0.576192 0.40566,-0.186036 0.9431,-0.186036 0.33073,0 0.62529,0.09302 0.29713,0.09043 0.55293,0.273885 z"
         style="font-style:italic;font-size:5.29167px;-inkscape-font-specification:'sans-serif, Italic'"
         id="path15358" />
      <path
         d="m -292.08441,-72.624251 -0.33848,1.746665 h -0.47801 l 0.33849,-1.728578 q 0.0233,-0.12144 0.0362,-0.214457 0.0129,-0.09302 0.0129,-0.147278 0,-0.217041 -0.13694,-0.338481 -0.13695,-0.12144 -0.38241,-0.12144 -0.38241,0 -0.66404,0.258382 -0.27906,0.258383 -0.36174,0.687297 l -0.31264,1.604555 h -0.47542 l 0.78289,-4.020429 h 0.47543 l -0.30748,1.5813 q 0.18087,-0.24288 0.46251,-0.382406 0.28163,-0.142111 0.59169,-0.142111 0.38241,0 0.5917,0.206706 0.21187,0.206706 0.21187,0.581361 0,0.09302 -0.0129,0.198954 -0.0103,0.105937 -0.0336,0.22996 z"
         style="font-style:italic;font-size:5.29167px;-inkscape-font-specification:'sans-serif, Italic'"
         id="path15360" />
      <path
         d="m -288.83654,-72.528649 -0.32298,1.651063 h -0.47542 l 0.0878,-0.43925 q -0.20929,0.258382 -0.47801,0.387573 -0.26613,0.126608 -0.59428,0.126608 -0.36949,0 -0.6072,-0.224793 -0.23513,-0.227377 -0.23513,-0.58136 0,-0.50643 0.40308,-0.800986 0.40566,-0.294555 1.11621,-0.294555 h 0.66146 l 0.0258,-0.126608 q 0.005,-0.02067 0.008,-0.04393 0.003,-0.02584 0.003,-0.07751 0,-0.229961 -0.18861,-0.356568 -0.18604,-0.129191 -0.52452,-0.129191 -0.23255,0 -0.47801,0.05943 -0.24288,0.05943 -0.50126,0.178284 l 0.0827,-0.43925 q 0.26872,-0.100769 0.52452,-0.149862 0.25838,-0.05168 0.49868,-0.05168 0.51159,0 0.77773,0.222209 0.26871,0.222209 0.26871,0.645956 0,0.08527 -0.0129,0.201538 -0.0129,0.113688 -0.0388,0.24288 z m -0.51418,0.19637 h -0.47543 q -0.58394,0 -0.86558,0.157613 -0.27905,0.15503 -0.27905,0.483175 0,0.227377 0.14211,0.356568 0.14469,0.129191 0.39791,0.129191 0.38757,0 0.67696,-0.276469 0.28939,-0.279053 0.38241,-0.744141 z"
         style="font-style:italic;font-size:5.29167px;-inkscape-font-specification:'sans-serif, Italic'"
         id="path15362" />
      <path
         d="m -285.81089,-72.660424 q 0,-0.379822 -0.16536,-0.581361 -0.16536,-0.201538 -0.47542,-0.201538 -0.21188,0 -0.40566,0.108521 -0.19121,0.10852 -0.34107,0.315226 -0.14728,0.204122 -0.23513,0.49351 -0.0879,0.289389 -0.0879,0.573609 0,0.361735 0.16537,0.558106 0.16536,0.193787 0.47025,0.193787 0.2248,0 0.416,-0.105937 0.19379,-0.105937 0.33073,-0.307475 0.14728,-0.211873 0.23771,-0.498678 0.0904,-0.286804 0.0904,-0.54777 z m -1.47277,-0.671794 q 0.1912,-0.250631 0.44958,-0.379822 0.26097,-0.129192 0.57878,-0.129192 0.44441,0 0.68988,0.291972 0.24546,0.289389 0.24546,0.813905 0,0.428914 -0.15244,0.819072 -0.15245,0.387573 -0.43925,0.695048 -0.19121,0.204122 -0.4315,0.312643 -0.2403,0.105937 -0.50643,0.105937 -0.30748,0 -0.51677,-0.126608 -0.20929,-0.129191 -0.31264,-0.382406 l -0.29714,1.534791 h -0.47542 l 0.77773,-3.99459 h 0.47542 z"
         style="font-style:italic;font-size:5.29167px;-inkscape-font-specification:'sans-serif, Italic'"
         id="path15364" />
      <path
         d="m -282.83949,-73.771468 -0.0723,0.369486 h -0.94826 l -0.30747,1.570965 q -0.0155,0.08785 -0.0233,0.147278 -0.008,0.05943 -0.008,0.09302 0,0.165365 0.0982,0.240296 0.10077,0.07493 0.32039,0.07493 h 0.48059 l -0.0801,0.397909 h -0.45475 q -0.42375,0 -0.63304,-0.165365 -0.2067,-0.165365 -0.2067,-0.501262 0,-0.05943 0.008,-0.129191 0.008,-0.07235 0.0233,-0.157613 l 0.30748,-1.570965 h -0.40308 l 0.0749,-0.369486 h 0.39533 l 0.16019,-0.821656 h 0.47543 l -0.15761,0.821656 z"
         style="font-style:italic;font-size:5.29167px;-inkscape-font-specification:'sans-serif, Italic'"
         id="path15366" />
      <path
         d="m -280.4572,-72.58291 q 0.008,-0.04134 0.0103,-0.08527 0.005,-0.04393 0.005,-0.08785 0,-0.315226 -0.18604,-0.498678 -0.18345,-0.183451 -0.50126,-0.183451 -0.35398,0 -0.62528,0.224792 -0.2713,0.222209 -0.41083,0.633037 z m 0.41341,0.372071 h -2.21175 q -0.0155,0.09819 -0.0207,0.155029 -0.005,0.05684 -0.005,0.09819 0,0.359151 0.21962,0.555522 0.22221,0.19637 0.62529,0.19637 0.31006,0 0.58653,-0.06976 0.27646,-0.06976 0.51418,-0.204122 l -0.0904,0.470256 q -0.2558,0.103353 -0.52968,0.155029 -0.2713,0.05168 -0.55294,0.05168 -0.60203,0 -0.92759,-0.286805 -0.32298,-0.289388 -0.32298,-0.819072 0,-0.452169 0.1602,-0.839742 0.16278,-0.390158 0.47542,-0.695049 0.20154,-0.191203 0.47801,-0.294556 0.27905,-0.103353 0.59169,-0.103353 0.49093,0 0.78032,0.294556 0.29197,0.294556 0.29197,0.79065 0,0.118856 -0.0155,0.255799 -0.0155,0.134358 -0.0465,0.289388 z"
         style="font-style:italic;font-size:5.29167px;-inkscape-font-specification:'sans-serif, Italic'"
         id="path15368" />
      <path
         d="m -277.38762,-73.332218 q -0.0723,-0.03876 -0.16537,-0.05943 -0.093,-0.02067 -0.19895,-0.02067 -0.37982,0 -0.66404,0.289388 -0.28422,0.286805 -0.37724,0.76998 l -0.29197,1.475363 h -0.47543 l 0.56586,-2.893882 h 0.47542 l -0.0904,0.449585 q 0.18862,-0.250631 0.44958,-0.38499 0.26355,-0.134359 0.56069,-0.134359 0.0775,0 0.15245,0.01034 0.0749,0.0078 0.14986,0.02842 z"
         style="font-style:italic;font-size:5.29167px;-inkscape-font-specification:'sans-serif, Italic'"
         id="path15370" />
      <path
         d="m -273.61266,-74.735234 h 0.6563 l -0.49351,2.51406 h 0.55035 l -0.0853,0.434082 h -0.55035 l -0.17312,0.909506 h -0.51935 l 0.1757,-0.909506 h -1.74149 l 0.10077,-0.503846 z m 0.0465,0.454753 -1.72082,2.059307 h 1.31775 z"
         style="font-style:italic;font-size:5.29167px;-inkscape-font-specification:'sans-serif, Italic'"
         id="path15372" />
    </g>
  </g>
</svg>
