<?xml version="1.0" standalone="no"?><!-- Generator: Gravit.io --><svg xmlns="http://www.w3.org/2000/svg" xmlns:xlink="http://www.w3.org/1999/xlink" style="isolation:isolate" viewBox="494.604 127.531 336 785.423" width="336" height="785.423"><mask id="_mask_kE43DaIZl227O4GiCMdNjUFN9T3NiiBG"><rect x="494.604" y="127.531" width="336" height="785.423" transform="matrix(1,0,0,1,0,0)" fill="white" stroke="none"/></mask><rect x="494.604" y="127.531" width="336" height="785.423" transform="matrix(1,0,0,1,0,0)" fill="rgb(0,221,249)" mask="url(#_mask_kE43DaIZl227O4GiCMdNjUFN9T3NiiBG)" vector-effect="non-scaling-stroke" stroke-width="20" stroke="rgb(0,0,0)" stroke-linejoin="miter" stroke-linecap="square" stroke-miterlimit="3"/><path d=" M 636.071 210.416 C 638.413 198.249 644.911 189.257 650.574 190.346 C 656.236 191.436 658.933 202.198 656.591 214.365 C 654.25 226.531 647.752 235.524 642.089 234.434 C 636.426 233.344 633.73 222.582 636.071 210.416 Z " fill="rgb(255,255,255)" vector-effect="non-scaling-stroke" stroke-width="2" stroke="rgb(0,0,0)" stroke-linejoin="miter" stroke-linecap="square" stroke-miterlimit="3"/><path d=" M 636.503 222.403 C 637.625 216.572 641.95 212.495 646.155 213.304 C 650.36 214.114 652.863 219.505 651.741 225.335 C 650.619 231.166 646.294 235.243 642.089 234.434 C 637.884 233.625 635.381 228.234 636.503 222.403 Z " fill="rgb(0,0,0)" vector-effect="non-scaling-stroke" stroke-width="2" stroke="rgb(0,0,0)" stroke-linejoin="miter" stroke-linecap="square" stroke-miterlimit="3"/><path d=" M 661.87 215.004 C 658.771 203.009 660.787 192.099 666.37 190.656 C 671.953 189.213 679.002 197.78 682.102 209.776 C 685.202 221.771 683.186 232.682 677.603 234.124 C 672.02 235.567 664.97 227 661.87 215.004 Z " fill="rgb(255,255,255)" vector-effect="non-scaling-stroke" stroke-width="2" stroke="rgb(0,0,0)" stroke-linejoin="miter" stroke-linecap="square" stroke-miterlimit="3"/><path d=" M 667.399 225.649 C 665.914 219.9 668.073 214.363 672.219 213.292 C 676.365 212.22 680.937 216.018 682.423 221.767 C 683.909 227.516 681.749 233.053 677.603 234.124 C 673.457 235.196 668.885 231.398 667.399 225.649 Z " fill="rgb(0,0,0)" vector-effect="non-scaling-stroke" stroke-width="2" stroke="rgb(0,0,0)" stroke-linejoin="miter" stroke-linecap="square" stroke-miterlimit="3"/><path d=" M 607.722 253.735 C 623.055 341.179 699.055 338.959 714.055 253.735" fill="rgb(0,221,249)" vector-effect="non-scaling-stroke" stroke-width="2" stroke="rgb(0,0,0)" stroke-linejoin="miter" stroke-linecap="square" stroke-miterlimit="3"/><path d=" M 644.986 250.149 C 654.222 241.282 663.611 241.292 673.124 250.149" fill="rgb(0,221,249)" vector-effect="non-scaling-stroke" stroke-width="2" stroke="rgb(0,0,0)" stroke-linejoin="miter" stroke-linecap="square" stroke-miterlimit="3"/><path d=" M 598.195 249.782 C 604.312 256.685 610.372 255.67 616.342 246.706" fill="rgb(0,221,249)" vector-effect="non-scaling-stroke" stroke-width="2" stroke="rgb(0,0,0)" stroke-linejoin="miter" stroke-linecap="square" stroke-miterlimit="3"/><path d=" M 706.239 244.758 C 710.233 255.967 716.839 257.583 726.026 249.577" fill="rgb(0,221,249)" vector-effect="non-scaling-stroke" stroke-width="2" stroke="rgb(0,0,0)" stroke-linejoin="miter" stroke-linecap="square" stroke-miterlimit="3"/><path d=" M 637.617 174.543 C 640.636 169.637 645.174 167.307 651.202 167.524" fill="rgb(0,221,249)" vector-effect="non-scaling-stroke" stroke-width="2" stroke="rgb(0,0,0)" stroke-linejoin="miter" stroke-linecap="square" stroke-miterlimit="3"/><path d=" M 681.712 176.075 C 679.297 171.245 675.383 168.84 669.939 168.83" fill="rgb(0,221,249)" vector-effect="non-scaling-stroke" stroke-width="2" stroke="rgb(0,0,0)" stroke-linejoin="miter" stroke-linecap="square" stroke-miterlimit="3"/></svg>