<?xml version="1.0" standalone="no"?><!-- Generator: Gravit.io --><svg xmlns="http://www.w3.org/2000/svg" xmlns:xlink="http://www.w3.org/1999/xlink" style="isolation:isolate" viewBox="123.74 531.707 1077.727 381.247" width="1077.727" height="381.247"><mask id="_mask_9R1hnvhAYMGXavMe5dFx5EK6cZJuJi8x"><rect x="123.74" y="531.707" width="1077.727" height="381.247" transform="matrix(1,0,0,1,0,0)" fill="white" stroke="none"/></mask><rect x="123.74" y="531.707" width="1077.727" height="381.247" transform="matrix(1,0,0,1,0,0)" fill="rgb(255,238,123)" mask="url(#_mask_9R1hnvhAYMGXavMe5dFx5EK6cZJuJi8x)" vector-effect="non-scaling-stroke" stroke-width="20" stroke="rgb(0,0,0)" stroke-linejoin="miter" stroke-linecap="square" stroke-miterlimit="3"/><path d=" M 226.014 618.019 C 228.356 605.853 234.854 596.86 240.517 597.95 C 246.179 599.04 248.876 609.802 246.534 621.968 C 244.193 634.135 237.694 643.127 232.032 642.037 C 226.369 640.948 223.673 630.185 226.014 618.019 Z " fill="rgb(255,255,255)" vector-effect="non-scaling-stroke" stroke-width="2" stroke="rgb(0,0,0)" stroke-linejoin="miter" stroke-linecap="square" stroke-miterlimit="3"/><path d=" M 226.446 630.006 C 227.568 624.176 231.893 620.099 236.098 620.908 C 240.303 621.717 242.806 627.108 241.684 632.939 C 240.562 638.77 236.237 642.847 232.032 642.037 C 227.827 641.228 225.324 635.837 226.446 630.006 Z " fill="rgb(0,0,0)" vector-effect="non-scaling-stroke" stroke-width="2" stroke="rgb(0,0,0)" stroke-linejoin="miter" stroke-linecap="square" stroke-miterlimit="3"/><path d=" M 251.813 622.608 C 248.713 610.612 250.729 599.702 256.313 598.259 C 261.896 596.817 268.945 605.384 272.045 617.379 C 275.145 629.375 273.129 640.285 267.546 641.728 C 261.963 643.171 254.913 634.603 251.813 622.608 Z " fill="rgb(255,255,255)" vector-effect="non-scaling-stroke" stroke-width="2" stroke="rgb(0,0,0)" stroke-linejoin="miter" stroke-linecap="square" stroke-miterlimit="3"/><path d=" M 257.342 633.253 C 255.857 627.504 258.016 621.967 262.162 620.895 C 266.308 619.824 270.88 623.621 272.366 629.37 C 273.852 635.119 271.692 640.657 267.546 641.728 C 263.4 642.799 258.828 639.002 257.342 633.253 Z " fill="rgb(0,0,0)" vector-effect="non-scaling-stroke" stroke-width="2" stroke="rgb(0,0,0)" stroke-linejoin="miter" stroke-linecap="square" stroke-miterlimit="3"/><path d=" M 197.665 661.339 C 212.998 748.783 288.998 746.562 303.998 661.339" fill="rgb(255,238,123)" vector-effect="non-scaling-stroke" stroke-width="2" stroke="rgb(0,0,0)" stroke-linejoin="miter" stroke-linecap="square" stroke-miterlimit="3"/><path d=" M 234.929 657.752 C 244.165 648.886 253.554 648.896 263.067 657.752" fill="rgb(255,238,123)" vector-effect="non-scaling-stroke" stroke-width="2" stroke="rgb(0,0,0)" stroke-linejoin="miter" stroke-linecap="square" stroke-miterlimit="3"/><path d=" M 188.138 657.386 C 194.255 664.289 200.315 663.274 206.285 654.31" fill="rgb(255,238,123)" vector-effect="non-scaling-stroke" stroke-width="2" stroke="rgb(0,0,0)" stroke-linejoin="miter" stroke-linecap="square" stroke-miterlimit="3"/><path d=" M 296.181 652.362 C 300.176 663.57 306.782 665.187 315.969 657.18" fill="rgb(255,238,123)" vector-effect="non-scaling-stroke" stroke-width="2" stroke="rgb(0,0,0)" stroke-linejoin="miter" stroke-linecap="square" stroke-miterlimit="3"/><path d=" M 227.56 582.146 C 230.579 577.241 235.117 574.911 241.145 575.127" fill="rgb(255,238,123)" vector-effect="non-scaling-stroke" stroke-width="2" stroke="rgb(0,0,0)" stroke-linejoin="miter" stroke-linecap="square" stroke-miterlimit="3"/><path d=" M 271.655 583.678 C 269.24 578.848 265.325 576.443 259.881 576.433" fill="rgb(255,238,123)" vector-effect="non-scaling-stroke" stroke-width="2" stroke="rgb(0,0,0)" stroke-linejoin="miter" stroke-linecap="square" stroke-miterlimit="3"/></svg>