<?xml version="1.0" standalone="no"?><!-- Generator: Gravit.io --><svg xmlns="http://www.w3.org/2000/svg" xmlns:xlink="http://www.w3.org/1999/xlink" style="isolation:isolate" viewBox="480.361 213.279 364.485 699.675" width="364.485" height="699.675"><mask id="_mask_qX3wZxYy9tAyhZSnezqvMoN9blfarxRP"><rect x="480.361" y="213.279" width="364.485" height="699.675" transform="matrix(1,0,0,1,0,0)" fill="white" stroke="none"/></mask><rect x="480.361" y="213.279" width="364.485" height="699.675" transform="matrix(1,0,0,1,0,0)" fill="rgb(64,123,194)" mask="url(#_mask_qX3wZxYy9tAyhZSnezqvMoN9blfarxRP)" vector-effect="non-scaling-stroke" stroke-width="20" stroke="rgb(0,0,0)" stroke-linejoin="miter" stroke-linecap="square" stroke-miterlimit="3"/><path d=" M 636.071 316.635 C 638.413 304.469 644.911 295.476 650.574 296.566 C 656.236 297.656 658.933 308.418 656.591 320.584 C 654.25 332.75 647.752 341.743 642.089 340.653 C 636.426 339.563 633.73 328.801 636.071 316.635 Z " fill="rgb(255,255,255)" vector-effect="non-scaling-stroke" stroke-width="2" stroke="rgb(0,0,0)" stroke-linejoin="miter" stroke-linecap="square" stroke-miterlimit="3"/><path d=" M 636.503 328.622 C 637.625 322.791 641.95 318.714 646.155 319.524 C 650.36 320.333 652.863 325.724 651.741 331.555 C 650.619 337.386 646.294 341.462 642.089 340.653 C 637.884 339.844 635.381 334.453 636.503 328.622 Z " fill="rgb(0,0,0)" vector-effect="non-scaling-stroke" stroke-width="2" stroke="rgb(0,0,0)" stroke-linejoin="miter" stroke-linecap="square" stroke-miterlimit="3"/><path d=" M 661.87 321.224 C 658.771 309.228 660.787 298.318 666.37 296.875 C 671.953 295.432 679.002 304 682.102 315.995 C 685.202 327.991 683.186 338.901 677.603 340.344 C 672.02 341.787 664.97 333.219 661.87 321.224 Z " fill="rgb(255,255,255)" vector-effect="non-scaling-stroke" stroke-width="2" stroke="rgb(0,0,0)" stroke-linejoin="miter" stroke-linecap="square" stroke-miterlimit="3"/><path d=" M 667.399 331.869 C 665.914 326.12 668.073 320.582 672.219 319.511 C 676.365 318.439 680.937 322.237 682.423 327.986 C 683.909 333.735 681.749 339.272 677.603 340.344 C 673.457 341.415 668.885 337.618 667.399 331.869 Z " fill="rgb(0,0,0)" vector-effect="non-scaling-stroke" stroke-width="2" stroke="rgb(0,0,0)" stroke-linejoin="miter" stroke-linecap="square" stroke-miterlimit="3"/><path d=" M 607.722 359.954 C 623.055 447.399 699.055 445.178 714.055 359.954" fill="rgb(64,123,194)" vector-effect="non-scaling-stroke" stroke-width="2" stroke="rgb(0,0,0)" stroke-linejoin="miter" stroke-linecap="square" stroke-miterlimit="3"/><path d=" M 644.986 356.368 C 654.222 347.501 663.611 347.511 673.124 356.368" fill="rgb(64,123,194)" vector-effect="non-scaling-stroke" stroke-width="2" stroke="rgb(0,0,0)" stroke-linejoin="miter" stroke-linecap="square" stroke-miterlimit="3"/><path d=" M 598.195 356.001 C 604.312 362.905 610.372 361.89 616.342 352.925" fill="rgb(64,123,194)" vector-effect="non-scaling-stroke" stroke-width="2" stroke="rgb(0,0,0)" stroke-linejoin="miter" stroke-linecap="square" stroke-miterlimit="3"/><path d=" M 706.239 350.977 C 710.233 362.186 716.839 363.803 726.026 355.796" fill="rgb(64,123,194)" vector-effect="non-scaling-stroke" stroke-width="2" stroke="rgb(0,0,0)" stroke-linejoin="miter" stroke-linecap="square" stroke-miterlimit="3"/><path d=" M 637.617 280.762 C 640.636 275.856 645.174 273.527 651.202 273.743" fill="rgb(64,123,194)" vector-effect="non-scaling-stroke" stroke-width="2" stroke="rgb(0,0,0)" stroke-linejoin="miter" stroke-linecap="square" stroke-miterlimit="3"/><path d=" M 681.712 282.294 C 679.297 277.464 675.383 275.059 669.939 275.049" fill="rgb(64,123,194)" vector-effect="non-scaling-stroke" stroke-width="2" stroke="rgb(0,0,0)" stroke-linejoin="miter" stroke-linecap="square" stroke-miterlimit="3"/></svg>