<?xml version="1.0" standalone="no"?><!-- Generator: Gravit.io --><svg xmlns="http://www.w3.org/2000/svg" xmlns:xlink="http://www.w3.org/1999/xlink" style="isolation:isolate" viewBox="494.604 328.954 336 584" width="336" height="584"><mask id="_mask_jJcOjYONdOdKhelrCuAB9QRjoCJ0YiWw"><rect x="494.604" y="328.954" width="336" height="584" transform="matrix(1,0,0,1,0,0)" fill="white" stroke="none"/></mask><rect x="494.604" y="328.954" width="336" height="584" transform="matrix(1,0,0,1,0,0)" fill="rgb(69,226,53)" mask="url(#_mask_jJcOjYONdOdKhelrCuAB9QRjoCJ0YiWw)" vector-effect="non-scaling-stroke" stroke-width="20" stroke="rgb(0,0,0)" stroke-linejoin="miter" stroke-linecap="square" stroke-miterlimit="3"/><path d=" M 636.071 453.996 C 638.413 441.83 644.911 432.837 650.574 433.927 C 656.236 435.017 658.933 445.779 656.591 457.945 C 654.25 470.112 647.752 479.104 642.089 478.015 C 636.426 476.925 633.73 466.163 636.071 453.996 Z " fill="rgb(255,255,255)" vector-effect="non-scaling-stroke" stroke-width="2" stroke="rgb(0,0,0)" stroke-linejoin="miter" stroke-linecap="square" stroke-miterlimit="3"/><path d=" M 636.503 465.984 C 637.625 460.153 641.95 456.076 646.155 456.885 C 650.36 457.694 652.863 463.085 651.741 468.916 C 650.619 474.747 646.294 478.824 642.089 478.015 C 637.884 477.205 635.381 471.814 636.503 465.984 Z " fill="rgb(0,0,0)" vector-effect="non-scaling-stroke" stroke-width="2" stroke="rgb(0,0,0)" stroke-linejoin="miter" stroke-linecap="square" stroke-miterlimit="3"/><path d=" M 661.87 458.585 C 658.771 446.59 660.787 435.679 666.37 434.237 C 671.953 432.794 679.002 441.361 682.102 453.357 C 685.202 465.352 683.186 476.262 677.603 477.705 C 672.02 479.148 664.97 470.581 661.87 458.585 Z " fill="rgb(255,255,255)" vector-effect="non-scaling-stroke" stroke-width="2" stroke="rgb(0,0,0)" stroke-linejoin="miter" stroke-linecap="square" stroke-miterlimit="3"/><path d=" M 667.399 469.23 C 665.914 463.481 668.073 457.944 672.219 456.872 C 676.365 455.801 680.937 459.598 682.423 465.347 C 683.909 471.096 681.749 476.634 677.603 477.705 C 673.457 478.777 668.885 474.979 667.399 469.23 Z " fill="rgb(0,0,0)" vector-effect="non-scaling-stroke" stroke-width="2" stroke="rgb(0,0,0)" stroke-linejoin="miter" stroke-linecap="square" stroke-miterlimit="3"/><path d=" M 607.722 577.699 C 623.055 490.254 699.055 492.475 714.055 577.699" fill="rgb(69,226,53)" vector-effect="non-scaling-stroke" stroke-width="2" stroke="rgb(0,0,0)" stroke-linejoin="miter" stroke-linecap="square" stroke-miterlimit="3"/><path d=" M 644.986 493.729 C 654.222 484.863 663.611 484.873 673.124 493.729" fill="rgb(69,226,53)" vector-effect="non-scaling-stroke" stroke-width="2" stroke="rgb(0,0,0)" stroke-linejoin="miter" stroke-linecap="square" stroke-miterlimit="3"/><path d=" M 598.195 581.652 C 604.312 574.748 610.372 575.763 616.342 584.727" fill="rgb(69,226,53)" vector-effect="non-scaling-stroke" stroke-width="2" stroke="rgb(0,0,0)" stroke-linejoin="miter" stroke-linecap="square" stroke-miterlimit="3"/><path d=" M 706.239 586.676 C 710.233 575.467 716.839 573.85 726.026 581.857" fill="rgb(69,226,53)" vector-effect="non-scaling-stroke" stroke-width="2" stroke="rgb(0,0,0)" stroke-linejoin="miter" stroke-linecap="square" stroke-miterlimit="3"/><path d=" M 637.617 418.123 C 640.636 413.218 645.174 410.888 651.202 411.105" fill="rgb(69,226,53)" vector-effect="non-scaling-stroke" stroke-width="2" stroke="rgb(0,0,0)" stroke-linejoin="miter" stroke-linecap="square" stroke-miterlimit="3"/><path d=" M 681.712 419.656 C 679.297 414.825 675.383 412.42 669.939 412.41" fill="rgb(69,226,53)" vector-effect="non-scaling-stroke" stroke-width="2" stroke="rgb(0,0,0)" stroke-linejoin="miter" stroke-linecap="square" stroke-miterlimit="3"/></svg>