<?xml version="1.0" standalone="no"?><!-- Generator: Gravit.io --><svg xmlns="http://www.w3.org/2000/svg" xmlns:xlink="http://www.w3.org/1999/xlink" style="isolation:isolate" viewBox="494.604 281.818 336 631.136" width="336" height="631.136"><mask id="_mask_vesPGf3mSeYdNKicmWYbXKp7YTHvp7kn"><rect x="494.604" y="281.818" width="336" height="631.136" transform="matrix(1,0,0,1,0,0)" fill="white" stroke="none"/></mask><rect x="494.604" y="281.818" width="336" height="631.136" transform="matrix(1,0,0,1,0,0)" fill="rgb(172,76,185)" mask="url(#_mask_vesPGf3mSeYdNKicmWYbXKp7YTHvp7kn)" vector-effect="non-scaling-stroke" stroke-width="20" stroke="rgb(0,0,0)" stroke-linejoin="miter" stroke-linecap="square" stroke-miterlimit="3"/><path d=" M 636.071 357.027 C 638.413 344.86 644.911 335.868 650.574 336.957 C 656.236 338.047 658.933 348.809 656.591 360.976 C 654.25 373.142 647.752 382.135 642.089 381.045 C 636.426 379.955 633.73 369.193 636.071 357.027 Z " fill="rgb(255,255,255)" vector-effect="non-scaling-stroke" stroke-width="2" stroke="rgb(0,0,0)" stroke-linejoin="miter" stroke-linecap="square" stroke-miterlimit="3"/><path d=" M 636.503 369.014 C 637.625 363.183 641.95 359.106 646.155 359.915 C 650.36 360.725 652.863 366.116 651.741 371.946 C 650.619 377.777 646.294 381.854 642.089 381.045 C 637.884 380.236 635.381 374.845 636.503 369.014 Z " fill="rgb(0,0,0)" vector-effect="non-scaling-stroke" stroke-width="2" stroke="rgb(0,0,0)" stroke-linejoin="miter" stroke-linecap="square" stroke-miterlimit="3"/><path d=" M 661.87 361.615 C 658.771 349.62 660.787 338.71 666.37 337.267 C 671.953 335.824 679.002 344.391 682.102 356.387 C 685.202 368.382 683.186 379.293 677.603 380.735 C 672.02 382.178 664.97 373.611 661.87 361.615 Z " fill="rgb(255,255,255)" vector-effect="non-scaling-stroke" stroke-width="2" stroke="rgb(0,0,0)" stroke-linejoin="miter" stroke-linecap="square" stroke-miterlimit="3"/><path d=" M 667.399 372.26 C 665.914 366.511 668.073 360.974 672.219 359.903 C 676.365 358.831 680.937 362.629 682.423 368.378 C 683.909 374.127 681.749 379.664 677.603 380.735 C 673.457 381.807 668.885 378.009 667.399 372.26 Z " fill="rgb(0,0,0)" vector-effect="non-scaling-stroke" stroke-width="2" stroke="rgb(0,0,0)" stroke-linejoin="miter" stroke-linecap="square" stroke-miterlimit="3"/><path d=" M 607.722 400.346 C 623.055 487.79 699.055 485.57 714.055 400.346" fill="rgb(172,76,185)" vector-effect="non-scaling-stroke" stroke-width="2" stroke="rgb(0,0,0)" stroke-linejoin="miter" stroke-linecap="square" stroke-miterlimit="3"/><path d=" M 644.986 396.76 C 654.222 387.893 663.611 387.903 673.124 396.76" fill="rgb(172,76,185)" vector-effect="non-scaling-stroke" stroke-width="2" stroke="rgb(0,0,0)" stroke-linejoin="miter" stroke-linecap="square" stroke-miterlimit="3"/><path d=" M 598.195 396.393 C 604.312 403.297 610.372 402.281 616.342 393.317" fill="rgb(172,76,185)" vector-effect="non-scaling-stroke" stroke-width="2" stroke="rgb(0,0,0)" stroke-linejoin="miter" stroke-linecap="square" stroke-miterlimit="3"/><path d=" M 706.239 391.369 C 710.233 402.578 716.839 404.194 726.026 396.188" fill="rgb(172,76,185)" vector-effect="non-scaling-stroke" stroke-width="2" stroke="rgb(0,0,0)" stroke-linejoin="miter" stroke-linecap="square" stroke-miterlimit="3"/><path d=" M 637.617 326.521 C 640.636 331.427 645.174 333.756 651.202 333.54" fill="rgb(172,76,185)" vector-effect="non-scaling-stroke" stroke-width="2" stroke="rgb(0,0,0)" stroke-linejoin="miter" stroke-linecap="square" stroke-miterlimit="3"/><path d=" M 681.712 324.989 C 679.297 329.819 675.383 332.224 669.939 332.234" fill="rgb(172,76,185)" vector-effect="non-scaling-stroke" stroke-width="2" stroke="rgb(0,0,0)" stroke-linejoin="miter" stroke-linecap="square" stroke-miterlimit="3"/></svg>