<?xml version="1.0" standalone="no"?><!-- Generator: Gravit.io --><svg xmlns="http://www.w3.org/2000/svg" xmlns:xlink="http://www.w3.org/1999/xlink" style="isolation:isolate" viewBox="119.216 355.003 1086.776 557.951" width="1086.776" height="557.951"><mask id="_mask_UJyOreFHMmqyssHeFn9jVmDmTMB5M4pP"><rect x="119.216" y="355.003" width="1086.776" height="557.951" transform="matrix(1,0,0,1,0,0)" fill="white" stroke="none"/></mask><rect x="119.216" y="355.003" width="1086.776" height="557.951" transform="matrix(1,0,0,1,0,0)" fill="rgb(69,89,188)" mask="url(#_mask_UJyOreFHMmqyssHeFn9jVmDmTMB5M4pP)" vector-effect="non-scaling-stroke" stroke-width="20" stroke="rgb(0,0,0)" stroke-linejoin="miter" stroke-linecap="square" stroke-miterlimit="3"/><path d=" M 207.18 422.148 C 209.521 409.982 216.02 400.989 221.682 402.079 C 227.345 403.169 230.041 413.931 227.7 426.097 C 225.358 438.263 218.86 447.256 213.197 446.166 C 207.535 445.076 204.838 434.314 207.18 422.148 Z " fill="rgb(255,255,255)" vector-effect="non-scaling-stroke" stroke-width="2" stroke="rgb(0,0,0)" stroke-linejoin="miter" stroke-linecap="square" stroke-miterlimit="3"/><path d=" M 207.612 434.135 C 208.734 428.304 213.059 424.227 217.264 425.037 C 221.469 425.846 223.972 431.237 222.849 437.068 C 221.727 442.899 217.402 446.975 213.197 446.166 C 208.992 445.357 206.49 439.966 207.612 434.135 Z " fill="rgb(0,0,0)" vector-effect="non-scaling-stroke" stroke-width="2" stroke="rgb(0,0,0)" stroke-linejoin="miter" stroke-linecap="square" stroke-miterlimit="3"/><path d=" M 232.979 426.737 C 229.879 414.741 231.895 403.831 237.478 402.388 C 243.061 400.945 250.111 409.513 253.211 421.508 C 256.311 433.504 254.295 444.414 248.712 445.857 C 243.129 447.3 236.079 438.732 232.979 426.737 Z " fill="rgb(255,255,255)" vector-effect="non-scaling-stroke" stroke-width="2" stroke="rgb(0,0,0)" stroke-linejoin="miter" stroke-linecap="square" stroke-miterlimit="3"/><path d=" M 238.508 437.382 C 237.022 431.633 239.182 426.095 243.328 425.024 C 247.474 423.952 252.046 427.75 253.532 433.499 C 255.017 439.248 252.858 444.785 248.712 445.857 C 244.566 446.928 239.994 443.131 238.508 437.382 Z " fill="rgb(0,0,0)" vector-effect="non-scaling-stroke" stroke-width="2" stroke="rgb(0,0,0)" stroke-linejoin="miter" stroke-linecap="square" stroke-miterlimit="3"/><path d=" M 178.831 465.467 C 194.164 552.912 270.164 550.691 285.164 465.467" fill="rgb(69,89,188)" vector-effect="non-scaling-stroke" stroke-width="2" stroke="rgb(0,0,0)" stroke-linejoin="miter" stroke-linecap="square" stroke-miterlimit="3"/><path d=" M 216.095 461.881 C 225.33 453.014 234.72 453.024 244.233 461.881" fill="rgb(69,89,188)" vector-effect="non-scaling-stroke" stroke-width="2" stroke="rgb(0,0,0)" stroke-linejoin="miter" stroke-linecap="square" stroke-miterlimit="3"/><path d=" M 169.304 461.514 C 175.421 468.418 181.48 467.403 187.451 458.438" fill="rgb(69,89,188)" vector-effect="non-scaling-stroke" stroke-width="2" stroke="rgb(0,0,0)" stroke-linejoin="miter" stroke-linecap="square" stroke-miterlimit="3"/><path d=" M 277.347 456.49 C 281.341 467.699 287.947 469.316 297.135 461.309" fill="rgb(69,89,188)" vector-effect="non-scaling-stroke" stroke-width="2" stroke="rgb(0,0,0)" stroke-linejoin="miter" stroke-linecap="square" stroke-miterlimit="3"/><path d=" M 208.726 386.275 C 211.744 381.369 216.283 379.04 222.31 379.256" fill="rgb(69,89,188)" vector-effect="non-scaling-stroke" stroke-width="2" stroke="rgb(0,0,0)" stroke-linejoin="miter" stroke-linecap="square" stroke-miterlimit="3"/><path d=" M 252.821 387.807 C 250.406 382.977 246.491 380.572 241.047 380.562" fill="rgb(69,89,188)" vector-effect="non-scaling-stroke" stroke-width="2" stroke="rgb(0,0,0)" stroke-linejoin="miter" stroke-linecap="square" stroke-miterlimit="3"/><path d=" M 224.166 592.006 C 226.507 579.84 233.005 570.847 238.668 571.937 C 244.331 573.027 247.027 583.789 244.686 595.955 C 242.344 608.121 235.846 617.114 230.183 616.024 C 224.521 614.934 221.824 604.172 224.166 592.006 Z " fill="rgb(255,255,255)" vector-effect="non-scaling-stroke" stroke-width="2" stroke="rgb(0,0,0)" stroke-linejoin="miter" stroke-linecap="square" stroke-miterlimit="3"/><path d=" M 224.598 603.993 C 225.72 598.162 230.045 594.085 234.25 594.895 C 238.455 595.704 240.957 601.095 239.835 606.926 C 238.713 612.757 234.388 616.833 230.183 616.024 C 225.978 615.215 223.475 609.824 224.598 603.993 Z " fill="rgb(0,0,0)" vector-effect="non-scaling-stroke" stroke-width="2" stroke="rgb(0,0,0)" stroke-linejoin="miter" stroke-linecap="square" stroke-miterlimit="3"/><path d=" M 249.965 596.595 C 246.865 584.599 248.881 573.689 254.464 572.246 C 260.047 570.803 267.097 579.371 270.197 591.366 C 273.297 603.362 271.281 614.272 265.697 615.715 C 260.114 617.158 253.065 608.59 249.965 596.595 Z " fill="rgb(255,255,255)" vector-effect="non-scaling-stroke" stroke-width="2" stroke="rgb(0,0,0)" stroke-linejoin="miter" stroke-linecap="square" stroke-miterlimit="3"/><path d=" M 255.494 607.24 C 254.008 601.491 256.168 595.953 260.314 594.882 C 264.46 593.81 269.032 597.608 270.517 603.357 C 272.003 609.106 269.843 614.643 265.697 615.715 C 261.552 616.786 256.979 612.989 255.494 607.24 Z " fill="rgb(0,0,0)" vector-effect="non-scaling-stroke" stroke-width="2" stroke="rgb(0,0,0)" stroke-linejoin="miter" stroke-linecap="square" stroke-miterlimit="3"/><path d=" M 195.816 635.325 C 211.15 722.77 287.15 720.549 302.15 635.325" fill="rgb(69,89,188)" vector-effect="non-scaling-stroke" stroke-width="2" stroke="rgb(0,0,0)" stroke-linejoin="miter" stroke-linecap="square" stroke-miterlimit="3"/><path d=" M 233.081 631.739 C 242.316 622.872 251.705 622.882 261.219 631.739" fill="rgb(69,89,188)" vector-effect="non-scaling-stroke" stroke-width="2" stroke="rgb(0,0,0)" stroke-linejoin="miter" stroke-linecap="square" stroke-miterlimit="3"/><path d=" M 186.289 631.372 C 192.407 638.276 198.466 637.261 204.437 628.296" fill="rgb(69,89,188)" vector-effect="non-scaling-stroke" stroke-width="2" stroke="rgb(0,0,0)" stroke-linejoin="miter" stroke-linecap="square" stroke-miterlimit="3"/><path d=" M 294.333 626.348 C 298.327 637.557 304.933 639.174 314.121 631.167" fill="rgb(69,89,188)" vector-effect="non-scaling-stroke" stroke-width="2" stroke="rgb(0,0,0)" stroke-linejoin="miter" stroke-linecap="square" stroke-miterlimit="3"/><path d=" M 225.711 556.133 C 228.73 551.227 233.268 548.898 239.296 549.114" fill="rgb(69,89,188)" vector-effect="non-scaling-stroke" stroke-width="2" stroke="rgb(0,0,0)" stroke-linejoin="miter" stroke-linecap="square" stroke-miterlimit="3"/><path d=" M 269.806 557.665 C 267.391 552.835 263.477 550.43 258.033 550.42" fill="rgb(69,89,188)" vector-effect="non-scaling-stroke" stroke-width="2" stroke="rgb(0,0,0)" stroke-linejoin="miter" stroke-linecap="square" stroke-miterlimit="3"/></svg>